<svg xmlns="http://www.w3.org/2000/svg" xmlns:xlink="http://www.w3.org/1999/xlink" viewBox="0,0,256,256" width="100px" height="100px"><g fill="#fcfeff" fill-rule="nonzero" stroke="none" stroke-width="1" stroke-linecap="butt" stroke-linejoin="miter" stroke-miterlimit="10" stroke-dasharray="" stroke-dashoffset="0" font-family="none" font-weight="none" font-size="none" text-anchor="none" style="mix-blend-mode: normal"><g transform="scale(2.56,2.56)"><path d="M50,14c-19.87041,0 -36,16.12959 -36,36c0,19.87041 16.12959,36 36,36c19.87041,0 36,-16.12959 36,-36c0,-19.87041 -16.12959,-36 -36,-36zM50,16c18.78953,0 34,15.21047 34,34c0,17.09006 -12.58536,31.21673 -29,33.63281v-23.63281h8.78906l2.10352,-10h-10.89062v-7.57031c0,-1.27829 0.28035,-2.07548 0.93555,-2.61133c0.65463,-0.53538 1.80173,-0.84907 3.62891,-0.84961l5.40234,0.03516l0.0332,-9.38086l-0.35547,-0.10937c-3.57582,-1.10092 -6.67362,-1.4359 -9.30469,-1.17773c-2.63106,0.25816 -4.79513,1.10797 -6.50195,2.375c-3.41364,2.53406 -4.94049,6.67562 -4.83984,10.83008v8.45898h-9v10h9v23.46289c-15.92188,-2.83236 -28,-16.72232 -28,-33.46289c0,-18.78953 15.21047,-34 34,-34zM46.66406,19.26367c-0.00717,0.0005 -0.01434,0.00115 -0.02148,0.00195c-0.01176,0.00089 -0.02349,0.00219 -0.03516,0.00391c-7.10825,0.76733 -13.98385,3.98983 -19.23828,9.61719c-0.13138,0.12878 -0.18143,0.3193 -0.13032,0.49602c0.05111,0.17673 0.19513,0.31112 0.37496,0.34989c0.17983,0.03878 0.36644,-0.02432 0.48583,-0.16427c5.08756,-5.44864 11.73548,-8.56202 18.61523,-9.30469c0.27614,-0.01402 0.48863,-0.24925 0.47461,-0.52539c-0.01402,-0.27614 -0.24925,-0.48863 -0.52539,-0.47461zM57.23047,29.27344c1.98657,0.02267 4.23717,0.37011 6.76758,1.11719l-0.02539,7.60547l-4.40039,-0.02734h-0.00195c-1.94008,0 -3.32882,0.30806 -4.26562,1.07422c-0.9368,0.76615 -1.30273,1.949 -1.30273,3.38672v8.57031h10.6582l-1.68359,8h-8.97656v24.75781c-1.31282,0.1537 -2.64564,0.24219 -4,0.24219c-1.69947,0 -3.3677,-0.12693 -5,-0.36719v-24.63281h-9v-8h9v-9.47656v-0.00586c-0.09435,-3.89454 1.32619,-7.69377 4.43555,-10.00195c1.90757,-1.41606 4.48397,-2.27997 7.79492,-2.24219zM23.53125,34.4375c-0.18256,-0.00073 -0.35101,0.0981 -0.43945,0.25781c-6.92604,12.16963 -4.86077,27.95879 5.8457,37.95508c0.20226,0.1882 0.51878,0.17681 0.70699,-0.02543c0.18822,-0.20224 0.17687,-0.51876 -0.02535,-0.707c-10.36953,-9.68171 -12.35816,-24.95614 -5.6582,-36.72852c0.08999,-0.15431 0.09083,-0.34491 0.0022,-0.5c-0.08863,-0.1551 -0.25326,-0.25114 -0.43189,-0.25195zM78.41406,38.51367c-0.16717,-0.00173 -0.32415,0.0802 -0.41833,0.21833c-0.09418,0.13813 -0.1131,0.31419 -0.05042,0.46917c1.46353,3.74538 2.15013,7.733 2.05078,11.70508c-0.01676,0.64824 -0.05339,1.29617 -0.11133,1.94141c-0.01607,0.17794 0.06402,0.35094 0.2101,0.45382c0.14608,0.10288 0.33595,0.12 0.49807,0.04492c0.16213,-0.07508 0.27188,-0.23095 0.28792,-0.4089c0.06,-0.66812 0.09797,-1.33675 0.11523,-2.00586v-0.00195c0.10265,-4.10392 -0.60667,-8.22118 -2.11914,-12.0918c-0.07258,-0.19326 -0.25646,-0.32206 -0.46289,-0.32422zM79.49219,56.67969c-0.23824,-0.00347 -0.44584,0.16163 -0.49609,0.39453c-0.3933,1.70497 -0.94057,3.38254 -1.64258,5.01172c-0.17891,0.41483 -0.36766,0.82607 -0.56641,1.23437c-0.12081,0.24864 -0.01719,0.54813 0.23145,0.66895c0.24864,0.12081 0.54813,0.01719 0.66895,-0.23145c0.20526,-0.42169 0.39889,-0.84622 0.58398,-1.27539c0.72599,-1.68482 1.29252,-3.42056 1.69922,-5.18359c0.0363,-0.14796 0.00317,-0.30439 -0.08999,-0.42493c-0.09316,-0.12054 -0.23619,-0.19204 -0.38852,-0.19421zM75.20117,66.80078c-0.16509,0.00196 -0.31858,0.08528 -0.41016,0.22266c-0.83806,1.22069 -1.77652,2.39414 -2.81836,3.50977c-2.59932,2.78428 -5.60725,4.95686 -8.84375,6.51758c-0.1612,0.0778 -0.26864,0.23569 -0.28186,0.41419c-0.01322,0.1785 0.0698,0.35049 0.21778,0.45118c0.14798,0.10069 0.33844,0.11479 0.49963,0.03697c3.34551,-1.61328 6.45399,-3.86256 9.13867,-6.73828c1.07616,-1.15237 2.04617,-2.36369 2.91211,-3.625c0.1087,-0.15344 0.12212,-0.35489 0.03474,-0.5214c-0.08738,-0.16651 -0.26078,-0.26992 -0.44881,-0.26766z"></path></g></g></svg>