<svg xmlns="http://www.w3.org/2000/svg" xmlns:xlink="http://www.w3.org/1999/xlink" viewBox="0,0,256,256" width="100px" height="100px"><g fill="#fcfeff" fill-rule="nonzero" stroke="none" stroke-width="1" stroke-linecap="butt" stroke-linejoin="miter" stroke-miterlimit="10" stroke-dasharray="" stroke-dashoffset="0" font-family="none" font-weight="none" font-size="none" text-anchor="none" style="mix-blend-mode: normal"><g transform="scale(2.56,2.56)"><path d="M30.92188,17.6543c-7.168,0 -13,5.832 -13,13v39c0,7.168 5.832,13 13,13h39c7.168,0 13,-5.832 13,-13v-39c0,-7.169 -5.832,-13 -13,-13zM30.92188,19.6543h39c6.065,0 11,4.935 11,11v39c0,6.065 -4.935,11 -11,11h-39c-6.065,0 -11,-4.935 -11,-11v-39c0,-6.065 4.935,-11 11,-11zM33.75781,22.65234c-5.976,0 -10.83594,4.86189 -10.83594,10.83789v33.32617c0,5.976 4.85994,10.83594 10.83594,10.83594h33.32617c5.976,0 10.83789,-4.85994 10.83789,-10.83594v-18.66211c0,-0.277 -0.223,-0.5 -0.5,-0.5c-0.276,0 -0.5,0.224 -0.5,0.5v18.66211c0,5.424 -4.41389,9.83789 -9.83789,9.83789h-33.32617c-5.424,0 -9.83594,-4.41389 -9.83594,-9.83789v-33.32617c0,-5.424 4.41194,-9.83789 9.83594,-9.83789h33.66406c0.276,0 0.5,-0.224 0.5,-0.5c0,-0.276 -0.224,-0.5 -0.5,-0.5zM50.41211,37.5c-0.067,0 -6.78786,0.00456 -11.25586,0.35156l-0.1875,0.01953c-0.733,0.074 -2.09922,0.21113 -3.32422,1.57813c-1.055,1.14 -1.38639,3.56188 -1.40039,3.67188c-0.003,0.028 -0.32227,2.82208 -0.32227,5.58008v2.58789c0,2.76 0.31827,5.55384 0.32227,5.58984c0.014,0.103 0.34548,2.52034 1.39648,3.65234c1.135,1.265 2.55534,1.44859 3.40234,1.55859c0.153,0.02 0.28631,0.03545 0.44531,0.06445c2.554,0.261 10.58659,0.34366 10.93359,0.34766c0.067,0 6.79463,-0.01638 11.26563,-0.35937l0.19336,-0.02148c0.732,-0.077 2.09545,-0.22003 3.31445,-1.58203c1.056,-1.138 1.38834,-3.55697 1.40234,-3.66797c0.003,-0.028 0.32227,-2.82108 0.32227,-5.58008v-2.58789c0,-2.759 -0.31927,-5.55403 -0.32227,-5.58203c-0.001,-0.002 -0.00195,-0.00481 -0.00195,-0.00781c-0.013,-0.103 -0.34453,-2.5242 -1.39453,-3.6582c-1.229,-1.373 -2.59513,-1.50998 -3.32812,-1.58398l-0.21094,-0.02148c-4.448,-0.345 -11.168,-0.34961 -11.25,-0.34961zM77.42188,37.6543c-0.276,0 -0.5,0.223 -0.5,0.5v2c0,0.276 0.224,0.5 0.5,0.5c0.276,0 0.5,-0.224 0.5,-0.5v-2c0,-0.276 -0.224,-0.5 -0.5,-0.5zM50.42773,38.5c0.067,0 6.74877,0.00475 11.13477,0.34375l0.20898,0.02148c0.641,0.065 1.71541,0.17462 2.69141,1.26563c0.695,0.75 1.05958,2.49437 1.14258,3.10938c0.014,0.123 0.31641,2.81194 0.31641,5.46094v2.58789c0,2.7 -0.31341,5.43898 -0.31641,5.45898c-0.081,0.611 -0.44744,2.36019 -1.14844,3.11719c-0.969,1.081 -2.03869,1.19472 -2.67969,1.26172l-0.19141,0.01953c-4.409,0.337 -11.09816,0.35352 -11.16016,0.35352c-0.083,-0.001 -8.32511,-0.08303 -10.78711,-0.33203c-0.131,-0.026 -0.28975,-0.04731 -0.46875,-0.07031c-0.756,-0.097 -1.89802,-0.24523 -2.79102,-1.24023c-0.696,-0.75 -1.06063,-2.49856 -1.14062,-3.10156c-0.004,-0.027 -0.31641,-2.7658 -0.31641,-5.4668v-2.58789c0,-2.698 0.31145,-5.43803 0.31445,-5.45703c0.081,-0.611 0.44544,-2.36109 1.14844,-3.12109c0.973,-1.084 2.04455,-1.19281 2.68555,-1.25781l0.1875,-0.01953c4.405,-0.341 11.08792,-0.3457 11.16992,-0.3457zM77.42188,41.6543c-0.276,0 -0.5,0.224 -0.5,0.5v4c0,0.276 0.224,0.5 0.5,0.5c0.276,0 0.5,-0.224 0.5,-0.5v-4c0,-0.277 -0.223,-0.5 -0.5,-0.5zM46.42578,43.34766c-0.087,-0.001 -0.1725,0.01995 -0.25,0.06445c-0.157,0.089 -0.25391,0.25555 -0.25391,0.43555v12c0,0.18 0.09691,0.34459 0.25391,0.43359c0.076,0.043 0.16109,0.06641 0.24609,0.06641c0.089,0 0.17686,-0.02526 0.25586,-0.07227l10,-6c0.151,-0.09 0.24414,-0.25173 0.24414,-0.42773c0,-0.176 -0.09314,-0.33869 -0.24414,-0.42969l-10,-6c-0.0775,-0.0465 -0.16495,-0.06931 -0.25195,-0.07031zM46.92188,44.73047l8.52734,5.11719l-8.52734,5.11523z"></path></g></g></svg>