<svg xmlns="http://www.w3.org/2000/svg" xmlns:xlink="http://www.w3.org/1999/xlink" viewBox="0,0,256,256" width="100px" height="100px"><g fill="#fcfeff" fill-rule="nonzero" stroke="none" stroke-width="1" stroke-linecap="butt" stroke-linejoin="miter" stroke-miterlimit="10" stroke-dasharray="" stroke-dashoffset="0" font-family="none" font-weight="none" font-size="none" text-anchor="none" style="mix-blend-mode: normal"><g transform="scale(2.56,2.56)"><path d="M64.5,16c-9.6534,0 -17.5,7.8466 -17.5,17.5c0,1.11297 0.23905,2.14948 0.44141,3.19727c-21.56005,-1.90403 -31.99107,-15.29351 -33.43945,-17.28516c-0.19903,-0.27423 -0.52339,-0.42903 -0.86177,-0.41128c-0.33838,0.01775 -0.64476,0.20563 -0.81402,0.49917c-1.49605,2.59636 -2.32617,5.82737 -2.32617,9c0,5.18572 2.46639,10.03741 6.30078,13.20703c-1.10021,-0.17976 -2.01799,-0.41746 -2.73437,-0.65625c-1.40513,-0.46838 -2.01172,-0.88281 -2.01172,-0.88281c-0.30687,-0.20449 -0.70136,-0.22352 -1.02649,-0.04952c-0.32513,0.174 -0.52812,0.51279 -0.5282,0.88155c0,7.23822 4.56688,13.38589 10.95313,15.8418c-0.33085,0.01779 -0.61568,0.1582 -0.95312,0.1582c-0.85261,0 -2.15498,-0.07551 -2.9375,-0.19141c-0.35603,-0.05251 -0.71281,0.09032 -0.93426,0.374c-0.22145,0.28368 -0.2734,0.66446 -0.13605,0.9971l0.08398,0.20312c0.00064,0.00196 0.0013,0.00391 0.00195,0.00586c2.53866,6.00279 8.72202,10.16339 15.43945,11.19336c-5.22048,3.95659 -12.00893,6.41797 -19.01758,6.41797h-1.5c-0.44058,0.00016 -0.82915,0.28862 -0.95682,0.71029c-0.12767,0.42167 0.03564,0.87722 0.40213,1.12174c6.21808,4.14539 14.50675,6.16797 23.05469,6.16797c26.77442,0 48.5,-21.72558 48.5,-48.5c0.00002,-0.00326 0.00002,-0.00651 0,-0.00977c0,0 -0.006,-0.61129 -0.01367,-1.25c-0.0046,-0.38893 -0.0095,-0.60047 -0.01367,-0.87891c4.89165,-2.92169 7.82813,-6.76172 7.82813,-6.76172c0.25767,-0.3447 0.26592,-0.81559 0.02049,-1.16912c-0.24543,-0.35352 -0.6895,-0.51039 -1.10252,-0.38948c0,0 -3.23197,0.78035 -6.64648,1.16602c3.98204,-3.32912 5.37695,-6.89062 5.37695,-6.89062c0.13064,-0.39008 0.0091,-0.82036 -0.30633,-1.08444c-0.31542,-0.26408 -0.76038,-0.30807 -1.12141,-0.11087c0,0 -4.94645,2.59538 -9.4082,2.82227c-3.1458,-3.03524 -7.39952,-4.94336 -12.11328,-4.94336zM64.5,18c4.35638,0 8.27628,1.79764 11.09375,4.6875c0.19377,0.19825 0.46114,0.30718 0.73828,0.30078c3.13344,-0.07523 5.87266,-1.01465 7.92578,-1.88086c-0.97156,1.43885 -2.57911,3.29011 -5.17578,4.96875c-0.4104,0.26602 -0.5682,0.78983 -0.37305,1.23828c0.05231,0.11993 0.11005,0.30593 0.20313,0.54297c0.15377,0.38977 0.53422,0.64237 0.95313,0.63281c2.21907,-0.04911 4.46635,-0.41823 6.22656,-0.77734c-1.32581,1.29372 -3.22921,2.90791 -5.61719,4.25391c-0.32711,0.18456 -0.52324,0.53684 -0.50781,0.91211c0,0.00005 0.01192,0.74772 0.01953,1.38477c0.00762,0.63704 0.01367,1.24609 0.01367,1.24609c-0.00536,25.68901 -20.80973,46.49023 -46.5,46.49023c-6.9004,0 -13.51034,-1.47226 -18.90039,-4.19336c7.55275,-0.47601 14.78818,-3.34226 20.06641,-8.06055c0.30596,-0.27289 0.41438,-0.70488 0.27355,-1.08991c-0.14083,-0.38503 -0.50239,-0.64511 -0.91222,-0.65619c-6.30982,-0.1766 -12.37773,-3.91627 -15.27148,-9.08203c0.43367,0.02119 0.87388,0.08203 1.24414,0.08203c2.21585,0 4.33921,-0.34861 6.33398,-1.05664c0.44884,-0.15843 0.72383,-0.61123 0.65744,-1.08256c-0.06638,-0.47132 -0.45575,-0.83056 -0.93088,-0.85885c-7.31383,-0.44898 -13.13313,-6.17209 -13.90625,-13.40234c0.35599,0.15734 0.27987,0.18314 0.7793,0.34961c1.59487,0.53162 3.95529,1.05078 7.06641,1.05078c0.46804,0.00018 0.8736,-0.32427 0.97617,-0.78092c0.10257,-0.45666 -0.12528,-0.92338 -0.54844,-1.12337c-4.96019,-2.34071 -8.42773,-7.82883 -8.42773,-13.5957c0,-2.29914 0.61121,-4.58951 1.50195,-6.60742c3.0999,3.88172 13.91832,15.59281 35.03516,16.9707c0.32296,0.02108 0.63616,-0.11543 0.84056,-0.36637c0.2044,-0.25094 0.27472,-0.58528 0.18874,-0.8973c-0.36086,-1.31495 -0.56641,-2.68292 -0.56641,-4.09961c0,-8.5726 6.9274,-15.5 15.5,-15.5zM64.5,21c-3.68806,0 -7.00309,1.61786 -9.29102,4.16602c-0.12286,0.1324 -0.16476,0.32076 -0.10963,0.49276c0.05513,0.172 0.19873,0.3009 0.37566,0.33721c0.17693,0.03631 0.35969,-0.02562 0.47811,-0.16201c2.10807,-2.34784 5.15093,-3.83398 8.54688,-3.83398c2.86354,0 5.54768,1.0479 7.66602,2.95508c0.13059,0.13158 0.32325,0.18013 0.5006,0.12612c0.17734,-0.054 0.31026,-0.20169 0.34535,-0.38372c0.03509,-0.18203 -0.03341,-0.36854 -0.17798,-0.48459c-2.29566,-2.06683 -5.22552,-3.21289 -8.33398,-3.21289zM53.61719,27.99414c-0.20115,-0.00396 -0.38509,0.11302 -0.4668,0.29688c-0.45233,0.98177 -0.77755,2.02857 -0.96289,3.125c-0.04638,0.27237 0.13681,0.53076 0.40918,0.57715c0.27237,0.04638 0.53076,-0.13681 0.57715,-0.40918c0.17066,-1.00957 0.46909,-1.97277 0.88477,-2.875c0.07296,-0.1533 0.06315,-0.33316 -0.02605,-0.47762c-0.0892,-0.14446 -0.24561,-0.23379 -0.41536,-0.23722zM52.49219,32.99219c-0.13261,0.00207 -0.25896,0.05673 -0.35127,0.15197c-0.0923,0.09523 -0.14299,0.22324 -0.14092,0.35584c0,0.37054 0.04427,0.72055 0.07227,1.04297c0.01112,0.18126 0.11965,0.34225 0.2835,0.42055c0.16386,0.0783 0.35728,0.06161 0.50531,-0.0436c0.14802,-0.10521 0.22737,-0.2824 0.20728,-0.46289c-0.03001,-0.34558 -0.06836,-0.66957 -0.06836,-0.95703c0.00212,-0.13532 -0.0507,-0.26572 -0.1464,-0.36141c-0.0957,-0.0957 -0.22609,-0.14852 -0.36141,-0.1464zM72.54883,52.99414c-0.19999,-0.00351 -0.38282,0.11249 -0.46484,0.29492c-4.83392,10.43973 -13.78006,18.59667 -24.74805,22.38477c-0.26104,0.09061 -0.3992,0.37568 -0.30859,0.63672c0.09061,0.26104 0.37568,0.3992 0.63672,0.30859c11.22802,-3.87791 20.3781,-12.22194 25.32617,-22.9082c0.07386,-0.15348 0.06451,-0.334 -0.0248,-0.47904c-0.08931,-0.14503 -0.24631,-0.23463 -0.41661,-0.23776zM41.49023,77.24023c-0.02822,0.00088 -0.05632,0.00415 -0.08398,0.00977c-1.61624,0.30626 -3.2655,0.5181 -4.94141,0.63477c-0.2756,0.01942 -0.48328,0.25858 -0.46387,0.53418c0.01942,0.2756 0.25858,0.48328 0.53418,0.46387c1.7141,-0.11933 3.40283,-0.33665 5.05859,-0.65039c0.25838,-0.0457 0.43749,-0.28333 0.41026,-0.5443c-0.02723,-0.26097 -0.25153,-0.45651 -0.51378,-0.44789zM32.50977,77.9707c-0.17865,-0.00351 -0.3456,0.08856 -0.43795,0.24152c-0.09235,0.15297 -0.09608,0.34358 -0.00977,0.50004c0.08631,0.15646 0.24954,0.25497 0.42818,0.25844c0.31994,0.00669 0.651,0.0293 1.00977,0.0293c0.18032,0.00255 0.34804,-0.09219 0.43894,-0.24794c0.0909,-0.15575 0.0909,-0.34838 0,-0.50413c-0.0909,-0.15575 -0.25863,-0.25049 -0.43894,-0.24794c-0.31524,0 -0.64017,-0.02198 -0.99023,-0.0293z"></path></g></g></svg>