<svg xmlns="http://www.w3.org/2000/svg" viewBox="0 0 750 500"><g id="freepik--background-simple--inject-34"><path d="M704,139.43s-40-90.68-166-109.82S355.78,44.78,319.8,91.07,258.33,81,152.79,77c-37.4-1.42-79.64,5.16-105.32,34.59C27.69,134.21,20,169.32,38.76,194.87c16.63,22.65,54.68,56.75,36.16,87.63C51.35,321.8,20.61,382.25,53.4,427.59S121,492.07,222.46,472.93,359.76,414.49,409,438.67,559.57,500.13,620,486s41-86.64,36.89-111.83,62.5-51.39,64.55-118.89S715.31,164.62,704,139.43Z" style="fill:#11357C"></path><path d="M704,139.43s-40-90.68-166-109.82S355.78,44.78,319.8,91.07,258.33,81,152.79,77c-37.4-1.42-79.64,5.16-105.32,34.59C27.69,134.21,20,169.32,38.76,194.87c16.63,22.65,54.68,56.75,36.16,87.63C51.35,321.8,20.61,382.25,53.4,427.59S121,492.07,222.46,472.93,359.76,414.49,409,438.67,559.57,500.13,620,486s41-86.64,36.89-111.83,62.5-51.39,64.55-118.89S715.31,164.62,704,139.43Z" style="fill:#fff;opacity:0.8"></path></g><g id="freepik--Clouds--inject-34"><path d="M307.68,33.94c-.23-.7-.47-1.41-.72-2.12C297.56,5.69,253.83,3.88,253.83,36c0,6.19-14.85,0-20.42,8s.62,13-6.8,15.46-8-3.71-17.32-3.09-8,9.28-11.14,11.75-3.09,1.24-9.9,1.86-8,5.57-8,5.57H342.92S349.1,57,338,50.23s-11.14,2.48-19.8-1.23C311,45.93,309.68,40.11,307.68,33.94Z" style="fill:none;stroke:#b2b2b2;stroke-linecap:round;stroke-linejoin:round"></path><path d="M313.3,68.83s3.37-10.42-4.9-18.08-16.85-3.37-19.3,0-2.46,9.81-6.44,10.42-3.06-6.74-11.64-4.9-5.21,10.42-9.19,12.25-4-4.9-9.5-2.75-5.21,6.12-5.21,6.12" style="fill:none;stroke:#b2b2b2;stroke-linecap:round;stroke-linejoin:round"></path><path d="M269.29,48a15.53,15.53,0,0,0-15.69-1.36c-8.87,4.09-4.78,12.62-8.87,14.67s-6.14-.34-11.26,2-4.77,5.79-4.77,5.79" style="fill:none;stroke:#b2b2b2;stroke-linecap:round;stroke-linejoin:round"></path><path d="M562.79,81.43c-.14-.43-.29-.87-.44-1.31-5.82-16.16-32.86-17.28-32.87,2.59,0,3.83-9.18,0-12.62,5s.38,8-4.21,9.56-5-2.29-10.72-1.91-5,5.74-6.89,7.27-1.91.77-6.12,1.15-5,3.44-5,3.44H584.59s3.83-11.48-3.06-15.69-6.89,1.53-12.25-.76C564.86,88.85,564,85.25,562.79,81.43Z" style="fill:none;stroke:#b2b2b2;stroke-linecap:round;stroke-linejoin:round"></path><path d="M566.27,103s2.09-6.45-3-11.19-10.43-2.08-11.94,0-1.52,6.07-4,6.45-1.9-4.17-7.2-3-3.23,6.44-5.69,7.58-2.46-3-5.88-1.71-3.22,3.79-3.22,3.79" style="fill:none;stroke:#b2b2b2;stroke-linecap:round;stroke-linejoin:round"></path><path d="M539.05,90.14a9.59,9.59,0,0,0-9.71-.84c-5.48,2.53-3,7.8-5.48,9.07s-3.8-.21-7,1.27-2.95,3.58-2.95,3.58" style="fill:none;stroke:#b2b2b2;stroke-linecap:round;stroke-linejoin:round"></path><path d="M286.17,101c-.12-.37-.24-.74-.37-1.1-4.89-13.58-27.61-14.52-27.61,2.17,0,3.21-7.71,0-10.6,4.18s.32,6.75-3.54,8-4.18-1.93-9-1.61-4.18,4.82-5.79,6.11-1.61.64-5.14,1-4.18,2.89-4.18,2.89h84.54s3.22-9.64-2.57-13.18-5.78,1.29-10.28-.64C287.91,107.24,287.21,104.21,286.17,101Z" style="fill:none;stroke:#b2b2b2;stroke-linecap:round;stroke-linejoin:round"></path><path d="M289.1,119.14a9.45,9.45,0,0,0-2.55-9.4c-4.3-4-8.76-1.75-10,0s-1.28,5.1-3.35,5.42-1.59-3.51-6.05-2.55-2.7,5.41-4.77,6.37-2.07-2.55-4.94-1.44-2.7,3.19-2.7,3.19" style="fill:none;stroke:#b2b2b2;stroke-linecap:round;stroke-linejoin:round"></path><path d="M266.23,108.32a8.07,8.07,0,0,0-8.16-.71c-4.61,2.13-2.48,6.56-4.61,7.62s-3.19-.17-5.84,1.07-2.49,3-2.49,3" style="fill:none;stroke:#b2b2b2;stroke-linecap:round;stroke-linejoin:round"></path><path d="M177.78,181.28c-.11-.36-.24-.73-.37-1.1-4.88-13.58-27.6-14.51-27.6,2.18,0,3.21-7.72,0-10.61,4.18s.32,6.75-3.54,8-4.18-1.93-9-1.6-4.18,4.82-5.79,6.1-1.6.65-5.14,1-4.18,2.89-4.18,2.89H196.1s3.21-9.64-2.58-13.18-5.78,1.29-10.28-.64C179.52,187.51,178.82,184.49,177.78,181.28Z" style="fill:none;stroke:#b2b2b2;stroke-linecap:round;stroke-linejoin:round"></path><path d="M180.71,199.41a9.44,9.44,0,0,0-2.55-9.39c-4.3-4-8.76-1.75-10,0s-1.27,5.09-3.34,5.41-1.6-3.5-6-2.54S156,198.3,154,199.25s-2.07-2.54-4.94-1.43-2.7,3.19-2.7,3.19" style="fill:none;stroke:#b2b2b2;stroke-linecap:round;stroke-linejoin:round"></path><path d="M157.84,188.6a8.05,8.05,0,0,0-8.15-.71c-4.61,2.13-2.49,6.56-4.61,7.62s-3.19-.18-5.85,1.06-2.48,3-2.48,3" style="fill:none;stroke:#b2b2b2;stroke-linecap:round;stroke-linejoin:round"></path></g><g id="freepik--Building--inject-34"><line x1="242.97" y1="370.96" x2="242.97" y2="373.04" style="fill:#fff;stroke:#263238;stroke-linejoin:round"></line><rect x="279.59" y="182.46" width="74.25" height="17.21" style="fill:#fff;stroke:#b2b2b2;stroke-linejoin:round"></rect><path d="M353.55,178c0-.47,0-.94,0-1.42,0-36.68-16.48-66.41-36.81-66.41s-36.81,29.73-36.81,66.41c0,.48,0,.95,0,1.42Z" style="fill:#11357C;stroke:#b2b2b2;stroke-linejoin:round"></path><path d="M346.21,178c0-.47,0-.94,0-1.42,0-36.68-13.2-66.41-29.47-66.41s-29.47,29.73-29.47,66.41c0,.48,0,.95,0,1.42Z" style="fill:#11357C;stroke:#b2b2b2;stroke-linejoin:round"></path><path d="M340.06,178c0-.47,0-.94,0-1.42,0-36.68-10.44-66.41-23.32-66.41s-23.32,29.73-23.32,66.41V178Z" style="fill:#11357C;stroke:#b2b2b2;stroke-linejoin:round"></path><path d="M331,178v-1.42c0-36.68-6.37-66.41-14.22-66.41s-14.23,29.73-14.23,66.41c0,.48,0,.95,0,1.42Z" style="fill:#11357C;stroke:#b2b2b2;stroke-linejoin:round"></path><path d="M321.14,178v-1.42c0-36.68-2-66.41-4.39-66.41s-4.39,29.73-4.39,66.41V178Z" style="fill:#11357C;stroke:#b2b2b2;stroke-linejoin:round"></path><rect x="278.12" y="176.07" width="77.69" height="9.34" style="fill:#fff;stroke:#b2b2b2;stroke-linejoin:round"></rect><rect x="159.21" y="304.65" width="120.59" height="86.39" style="fill:#b2b2b2;stroke:#b2b2b2;stroke-linejoin:round"></rect><rect x="179.52" y="342.65" width="8.59" height="2.39" style="fill:#fff;stroke:#b2b2b2;stroke-linejoin:round"></rect><polygon points="186.22 349.23 181.41 349.23 181.14 345.1 186.48 345.1 186.22 349.23" style="fill:#fff;stroke:#b2b2b2;stroke-linejoin:round"></polygon><polygon points="186.56 391.43 181.06 391.43 181.34 349.23 186.29 349.23 186.56 391.43" style="fill:#fff;stroke:#b2b2b2;stroke-linejoin:round"></polygon><rect x="199.62" y="342.65" width="8.59" height="2.39" style="fill:#fff;stroke:#b2b2b2;stroke-linejoin:round"></rect><polygon points="206.32 349.23 201.51 349.23 201.24 345.1 206.59 345.1 206.32 349.23" style="fill:#fff;stroke:#b2b2b2;stroke-linejoin:round"></polygon><polygon points="206.66 391.43 201.17 391.43 201.44 349.23 206.39 349.23 206.66 391.43" style="fill:#fff;stroke:#b2b2b2;stroke-linejoin:round"></polygon><rect x="219.72" y="342.65" width="8.59" height="2.39" style="fill:#fff;stroke:#b2b2b2;stroke-linejoin:round"></rect><polygon points="226.42 349.23 221.61 349.23 221.35 345.1 226.69 345.1 226.42 349.23" style="fill:#fff;stroke:#b2b2b2;stroke-linejoin:round"></polygon><polygon points="226.77 391.43 221.27 391.43 221.54 349.23 226.49 349.23 226.77 391.43" style="fill:#fff;stroke:#b2b2b2;stroke-linejoin:round"></polygon><rect x="239.82" y="342.65" width="8.59" height="2.39" style="fill:#fff;stroke:#b2b2b2;stroke-linejoin:round"></rect><polygon points="246.52 349.23 241.72 349.23 241.45 345.1 246.79 345.1 246.52 349.23" style="fill:#fff;stroke:#b2b2b2;stroke-linejoin:round"></polygon><polygon points="246.87 391.43 241.37 391.43 241.65 349.23 246.59 349.23 246.87 391.43" style="fill:#fff;stroke:#b2b2b2;stroke-linejoin:round"></polygon><rect x="259.93" y="342.65" width="8.59" height="2.39" style="fill:#fff;stroke:#b2b2b2;stroke-linejoin:round"></rect><polygon points="266.63 349.23 261.82 349.23 261.55 345.1 266.89 345.1 266.63 349.23" style="fill:#fff;stroke:#b2b2b2;stroke-linejoin:round"></polygon><polygon points="266.97 391.43 261.47 391.43 261.75 349.23 266.7 349.23 266.97 391.43" style="fill:#fff;stroke:#b2b2b2;stroke-linejoin:round"></polygon><rect x="159.51" y="285.78" width="120.3" height="21.52" style="fill:#fff;stroke:#b2b2b2;stroke-linejoin:round"></rect><rect x="159.51" y="324.41" width="120.3" height="7.08" style="fill:#fff;stroke:#b2b2b2;stroke-linejoin:round"></rect><rect x="159.51" y="331.19" width="120.3" height="11.5" style="fill:#fff;stroke:#b2b2b2;stroke-linejoin:round"></rect><rect x="214.94" y="315.27" width="4.72" height="8.85" style="fill:#fff;stroke:#b2b2b2;stroke-linejoin:round"></rect><rect x="207.86" y="315.27" width="4.72" height="8.85" style="fill:#fff;stroke:#b2b2b2;stroke-linejoin:round"></rect><rect x="196.66" y="315.27" width="4.72" height="8.85" style="fill:#fff;stroke:#b2b2b2;stroke-linejoin:round"></rect><rect x="189.58" y="315.27" width="4.72" height="8.85" style="fill:#fff;stroke:#b2b2b2;stroke-linejoin:round"></rect><rect x="178.38" y="315.27" width="4.72" height="8.85" style="fill:#fff;stroke:#b2b2b2;stroke-linejoin:round"></rect><rect x="171.3" y="315.27" width="4.72" height="8.85" style="fill:#fff;stroke:#b2b2b2;stroke-linejoin:round"></rect><rect x="228.21" y="315.27" width="4.72" height="8.85" style="fill:#fff;stroke:#b2b2b2;stroke-linejoin:round"></rect><rect x="234.99" y="315.27" width="4.72" height="8.85" style="fill:#fff;stroke:#b2b2b2;stroke-linejoin:round"></rect><rect x="246.78" y="315.27" width="4.72" height="8.85" style="fill:#fff;stroke:#b2b2b2;stroke-linejoin:round"></rect><rect x="253.57" y="315.27" width="4.72" height="8.85" style="fill:#fff;stroke:#b2b2b2;stroke-linejoin:round"></rect><rect x="191.65" y="347.7" width="5.9" height="10.32" style="fill:#5c5c5c;stroke:#b2b2b2;stroke-linejoin:round"></rect><rect x="211.11" y="347.7" width="5.9" height="10.32" style="fill:#5c5c5c;stroke:#b2b2b2;stroke-linejoin:round"></rect><rect x="230.57" y="347.7" width="5.9" height="10.32" style="fill:#5c5c5c;stroke:#b2b2b2;stroke-linejoin:round"></rect><rect x="250.03" y="347.7" width="5.9" height="10.32" style="fill:#5c5c5c;stroke:#b2b2b2;stroke-linejoin:round"></rect><rect x="191.65" y="370.4" width="5.9" height="21.02" style="fill:#fff;stroke:#b2b2b2;stroke-linejoin:round"></rect><rect x="169.57" y="347.7" width="5.9" height="10.32" style="fill:#5c5c5c;stroke:#b2b2b2;stroke-linejoin:round"></rect><rect x="169.57" y="370.4" width="5.9" height="21.02" style="fill:#fff;stroke:#b2b2b2;stroke-linejoin:round"></rect><rect x="211.11" y="370.4" width="5.9" height="21.02" style="fill:#fff;stroke:#b2b2b2;stroke-linejoin:round"></rect><rect x="230.57" y="370.4" width="5.9" height="21.02" style="fill:#fff;stroke:#b2b2b2;stroke-linejoin:round"></rect><rect x="250.03" y="370.4" width="5.9" height="21.02" style="fill:#fff;stroke:#b2b2b2;stroke-linejoin:round"></rect><rect x="374.87" y="304.65" width="120.59" height="86.39" style="fill:#b2b2b2;stroke:#b2b2b2;stroke-linejoin:round"></rect><rect x="395.17" y="342.65" width="8.59" height="2.39" style="fill:#fff;stroke:#b2b2b2;stroke-linejoin:round"></rect><polygon points="401.87 349.23 397.06 349.23 396.8 345.1 402.14 345.1 401.87 349.23" style="fill:#fff;stroke:#b2b2b2;stroke-linejoin:round"></polygon><polygon points="402.22 391.43 396.72 391.43 396.99 349.23 401.94 349.23 402.22 391.43" style="fill:#fff;stroke:#b2b2b2;stroke-linejoin:round"></polygon><rect x="415.28" y="342.65" width="8.59" height="2.39" style="fill:#fff;stroke:#b2b2b2;stroke-linejoin:round"></rect><polygon points="421.98 349.23 417.17 349.23 416.9 345.1 422.24 345.1 421.98 349.23" style="fill:#fff;stroke:#b2b2b2;stroke-linejoin:round"></polygon><polygon points="422.32 391.43 416.82 391.43 417.1 349.23 422.05 349.23 422.32 391.43" style="fill:#fff;stroke:#b2b2b2;stroke-linejoin:round"></polygon><rect x="435.38" y="342.65" width="8.59" height="2.39" style="fill:#fff;stroke:#b2b2b2;stroke-linejoin:round"></rect><polygon points="442.08 349.23 437.27 349.23 437 345.1 442.35 345.1 442.08 349.23" style="fill:#fff;stroke:#b2b2b2;stroke-linejoin:round"></polygon><polygon points="442.42 391.43 436.93 391.43 437.2 349.23 442.15 349.23 442.42 391.43" style="fill:#fff;stroke:#b2b2b2;stroke-linejoin:round"></polygon><rect x="455.48" y="342.65" width="8.59" height="2.39" style="fill:#fff;stroke:#b2b2b2;stroke-linejoin:round"></rect><polygon points="462.18 349.23 457.37 349.23 457.11 345.1 462.45 345.1 462.18 349.23" style="fill:#fff;stroke:#b2b2b2;stroke-linejoin:round"></polygon><polygon points="462.53 391.43 457.03 391.43 457.3 349.23 462.25 349.23 462.53 391.43" style="fill:#fff;stroke:#b2b2b2;stroke-linejoin:round"></polygon><rect x="475.58" y="342.65" width="8.59" height="2.39" style="fill:#fff;stroke:#b2b2b2;stroke-linejoin:round"></rect><polygon points="482.28 349.23 477.48 349.23 477.21 345.1 482.55 345.1 482.28 349.23" style="fill:#fff;stroke:#b2b2b2;stroke-linejoin:round"></polygon><polygon points="482.63 391.43 477.13 391.43 477.4 349.23 482.35 349.23 482.63 391.43" style="fill:#fff;stroke:#b2b2b2;stroke-linejoin:round"></polygon><rect x="375.16" y="285.78" width="120.3" height="21.52" style="fill:#fff;stroke:#b2b2b2;stroke-linejoin:round"></rect><rect x="375.16" y="324.41" width="120.3" height="7.08" style="fill:#fff;stroke:#b2b2b2;stroke-linejoin:round"></rect><rect x="375.16" y="331.19" width="120.3" height="11.5" style="fill:#fff;stroke:#b2b2b2;stroke-linejoin:round"></rect><rect x="430.6" y="315.27" width="4.72" height="8.85" style="fill:#fff;stroke:#b2b2b2;stroke-linejoin:round"></rect><rect x="423.52" y="315.27" width="4.72" height="8.85" style="fill:#fff;stroke:#b2b2b2;stroke-linejoin:round"></rect><rect x="412.32" y="315.27" width="4.72" height="8.85" style="fill:#fff;stroke:#b2b2b2;stroke-linejoin:round"></rect><rect x="405.24" y="315.27" width="4.72" height="8.85" style="fill:#fff;stroke:#b2b2b2;stroke-linejoin:round"></rect><rect x="394.03" y="315.27" width="4.72" height="8.85" style="fill:#fff;stroke:#b2b2b2;stroke-linejoin:round"></rect><rect x="386.96" y="315.27" width="4.72" height="8.85" style="fill:#fff;stroke:#b2b2b2;stroke-linejoin:round"></rect><rect x="443.87" y="315.27" width="4.72" height="8.85" style="fill:#fff;stroke:#b2b2b2;stroke-linejoin:round"></rect><rect x="450.65" y="315.27" width="4.72" height="8.85" style="fill:#fff;stroke:#b2b2b2;stroke-linejoin:round"></rect><rect x="462.44" y="315.27" width="4.72" height="8.85" style="fill:#fff;stroke:#b2b2b2;stroke-linejoin:round"></rect><rect x="469.22" y="315.27" width="4.72" height="8.85" style="fill:#fff;stroke:#b2b2b2;stroke-linejoin:round"></rect><rect x="480.44" y="315.27" width="4.72" height="8.85" style="fill:#fff;stroke:#b2b2b2;stroke-linejoin:round"></rect><rect x="487.22" y="315.27" width="4.72" height="8.85" style="fill:#fff;stroke:#b2b2b2;stroke-linejoin:round"></rect><rect x="407.3" y="347.7" width="5.9" height="10.32" style="fill:#fff;stroke:#b2b2b2;stroke-linejoin:round"></rect><rect x="426.76" y="347.7" width="5.9" height="10.32" style="fill:#fff;stroke:#b2b2b2;stroke-linejoin:round"></rect><rect x="446.22" y="347.7" width="5.9" height="10.32" style="fill:#fff;stroke:#b2b2b2;stroke-linejoin:round"></rect><rect x="465.68" y="347.7" width="5.9" height="10.32" style="fill:#fff;stroke:#b2b2b2;stroke-linejoin:round"></rect><rect x="485.72" y="347.7" width="5.9" height="10.32" style="fill:#fff;stroke:#b2b2b2;stroke-linejoin:round"></rect><rect x="407.3" y="370.4" width="5.9" height="21.02" style="fill:#fff;stroke:#b2b2b2;stroke-linejoin:round"></rect><rect x="385.23" y="347.7" width="5.9" height="10.32" style="fill:#fff;stroke:#b2b2b2;stroke-linejoin:round"></rect><rect x="385.23" y="370.4" width="5.9" height="21.02" style="fill:#fff;stroke:#b2b2b2;stroke-linejoin:round"></rect><rect x="426.76" y="370.4" width="5.9" height="21.02" style="fill:#fff;stroke:#b2b2b2;stroke-linejoin:round"></rect><rect x="446.22" y="370.4" width="5.9" height="21.02" style="fill:#fff;stroke:#b2b2b2;stroke-linejoin:round"></rect><rect x="465.68" y="370.4" width="5.9" height="21.02" style="fill:#fff;stroke:#b2b2b2;stroke-linejoin:round"></rect><rect x="273.94" y="196.22" width="86.05" height="58.76" style="fill:#b2b2b2;stroke:#b2b2b2;stroke-linejoin:round"></rect><rect x="273.94" y="227.45" width="86.05" height="27.53" style="fill:#fff;stroke:#b2b2b2;stroke-linejoin:round"></rect><rect x="298.71" y="227.2" width="36.5" height="27.78" style="fill:#fff;stroke:#b2b2b2;stroke-linejoin:round"></rect><rect x="298.71" y="196.22" width="36.5" height="9.34" style="fill:#fff;stroke:#b2b2b2;stroke-linejoin:round"></rect><rect x="278.63" y="186.71" width="2.73" height="8.71" style="fill:#fff;stroke:#b2b2b2;stroke-linejoin:round"></rect><rect x="277.95" y="185.37" width="3.97" height="1.45" style="fill:#fff;stroke:#b2b2b2;stroke-linejoin:round"></rect><rect x="277.95" y="194.65" width="3.97" height="1.45" style="fill:#fff;stroke:#b2b2b2;stroke-linejoin:round"></rect><rect x="286.01" y="186.71" width="2.73" height="8.71" style="fill:#fff;stroke:#b2b2b2;stroke-linejoin:round"></rect><rect x="285.33" y="185.37" width="3.97" height="1.45" style="fill:#fff;stroke:#b2b2b2;stroke-linejoin:round"></rect><rect x="285.33" y="194.65" width="3.97" height="1.45" style="fill:#fff;stroke:#b2b2b2;stroke-linejoin:round"></rect><rect x="293.38" y="186.71" width="2.73" height="8.71" style="fill:#fff;stroke:#b2b2b2;stroke-linejoin:round"></rect><rect x="292.71" y="185.37" width="3.97" height="1.45" style="fill:#fff;stroke:#b2b2b2;stroke-linejoin:round"></rect><rect x="292.71" y="194.65" width="3.97" height="1.45" style="fill:#fff;stroke:#b2b2b2;stroke-linejoin:round"></rect><rect x="300.76" y="186.71" width="2.73" height="8.71" style="fill:#fff;stroke:#b2b2b2;stroke-linejoin:round"></rect><rect x="300.08" y="185.37" width="3.97" height="1.45" style="fill:#fff;stroke:#b2b2b2;stroke-linejoin:round"></rect><rect x="300.08" y="194.65" width="3.97" height="1.45" style="fill:#fff;stroke:#b2b2b2;stroke-linejoin:round"></rect><rect x="308.14" y="186.71" width="2.73" height="8.71" style="fill:#fff;stroke:#b2b2b2;stroke-linejoin:round"></rect><rect x="307.46" y="185.37" width="3.97" height="1.45" style="fill:#fff;stroke:#b2b2b2;stroke-linejoin:round"></rect><rect x="307.46" y="194.65" width="3.97" height="1.45" style="fill:#fff;stroke:#b2b2b2;stroke-linejoin:round"></rect><rect x="315.52" y="186.71" width="2.73" height="8.71" style="fill:#fff;stroke:#b2b2b2;stroke-linejoin:round"></rect><rect x="314.84" y="185.37" width="3.97" height="1.45" style="fill:#fff;stroke:#b2b2b2;stroke-linejoin:round"></rect><rect x="314.84" y="194.65" width="3.97" height="1.45" style="fill:#fff;stroke:#b2b2b2;stroke-linejoin:round"></rect><rect x="322.89" y="186.71" width="2.73" height="8.71" style="fill:#fff;stroke:#b2b2b2;stroke-linejoin:round"></rect><rect x="322.21" y="185.37" width="3.97" height="1.45" style="fill:#fff;stroke:#b2b2b2;stroke-linejoin:round"></rect><rect x="322.21" y="194.65" width="3.97" height="1.45" style="fill:#fff;stroke:#b2b2b2;stroke-linejoin:round"></rect><rect x="330.27" y="186.71" width="2.73" height="8.71" style="fill:#fff;stroke:#b2b2b2;stroke-linejoin:round"></rect><rect x="329.59" y="185.37" width="3.97" height="1.45" style="fill:#fff;stroke:#b2b2b2;stroke-linejoin:round"></rect><rect x="329.59" y="194.65" width="3.97" height="1.45" style="fill:#fff;stroke:#b2b2b2;stroke-linejoin:round"></rect><rect x="337.65" y="186.71" width="2.73" height="8.71" style="fill:#fff;stroke:#b2b2b2;stroke-linejoin:round"></rect><rect x="336.97" y="185.37" width="3.97" height="1.45" style="fill:#fff;stroke:#b2b2b2;stroke-linejoin:round"></rect><rect x="336.97" y="194.65" width="3.97" height="1.45" style="fill:#fff;stroke:#b2b2b2;stroke-linejoin:round"></rect><rect x="345.02" y="186.71" width="2.73" height="8.71" style="fill:#fff;stroke:#b2b2b2;stroke-linejoin:round"></rect><rect x="344.35" y="185.37" width="3.97" height="1.45" style="fill:#fff;stroke:#b2b2b2;stroke-linejoin:round"></rect><rect x="344.35" y="194.65" width="3.97" height="1.45" style="fill:#fff;stroke:#b2b2b2;stroke-linejoin:round"></rect><rect x="352.4" y="186.71" width="2.73" height="8.71" style="fill:#fff;stroke:#b2b2b2;stroke-linejoin:round"></rect><rect x="351.72" y="185.37" width="3.97" height="1.45" style="fill:#fff;stroke:#b2b2b2;stroke-linejoin:round"></rect><rect x="351.72" y="194.65" width="3.97" height="1.45" style="fill:#fff;stroke:#b2b2b2;stroke-linejoin:round"></rect><polygon points="316.93 188.28 298 196.05 335.85 196.05 316.93 188.28" style="fill:#fff;stroke:#b2b2b2;stroke-linejoin:round"></polygon><polygon points="316.93 189.52 302.54 195.43 331.31 195.43 316.93 189.52" style="fill:#fff;stroke:#b2b2b2;stroke-linejoin:round"></polygon><path d="M301.72,115.59l4.91-5.47h18.69l5.65,5S301,114.85,301.72,115.59Z" style="fill:#11357C;stroke:#b2b2b2;stroke-linejoin:round"></path><rect x="303.93" y="100.1" width="24.34" height="4.92" style="fill:#11357C;stroke:#b2b2b2;stroke-linejoin:round"></rect><rect x="306.63" y="103.79" width="18.93" height="7.38" style="fill:#11357C;stroke:#b2b2b2;stroke-linejoin:round"></rect><path d="M306.88,102.31c0,1.22-.66,2.21-1.48,2.21s-1.47-1-1.47-2.21.66-2.21,1.47-2.21S306.88,101.09,306.88,102.31Z" style="fill:#11357C;stroke:#b2b2b2;stroke-linejoin:round"></path><ellipse cx="315.98" cy="102.31" rx="1.48" ry="2.21" style="fill:#11357C;stroke:#b2b2b2;stroke-linejoin:round"></ellipse><ellipse cx="326.55" cy="102.31" rx="1.48" ry="2.21" style="fill:#11357C;stroke:#b2b2b2;stroke-linejoin:round"></ellipse><rect x="310.54" y="93.3" width="11.47" height="6.72" style="fill:#11357C;stroke:#b2b2b2;stroke-linejoin:round"></rect><rect x="311.85" y="81.5" width="8.85" height="11.8" style="fill:#11357C;stroke:#b2b2b2;stroke-linejoin:round"></rect><rect x="309.97" y="77.07" width="12.62" height="4.43" style="fill:#11357C;stroke:#b2b2b2;stroke-linejoin:round"></rect><rect x="313" y="70.35" width="6.56" height="6.56" style="fill:#11357C;stroke:#b2b2b2;stroke-linejoin:round"></rect><rect x="314.97" y="64.94" width="2.62" height="5.24" style="fill:#11357C;stroke:#b2b2b2;stroke-linejoin:round"></rect><circle cx="316.28" cy="62.16" r="2.13" style="fill:#11357C;stroke:#b2b2b2;stroke-linejoin:round"></circle><path d="M315.54,60.19,316,36.1a0,0,0,0,1,.08,0L317,60.19Z" style="fill:#11357C;stroke:#b2b2b2;stroke-linejoin:round"></path><path d="M307.11,118.5h0a1,1,0,1,0,.74,1.78" style="fill:#11357C;stroke:#b2b2b2;stroke-linejoin:round"></path><path d="M300.61,146.77h0a2,2,0,1,0,0,4,2,2,0,0,0,1.4-.58" style="fill:#11357C;stroke:#b2b2b2;stroke-linejoin:round"></path><path d="M292.78,146.77h0a2.06,2.06,0,0,0,0,4,1.34,1.34,0,0,0,1.07-.58" style="fill:#11357C;stroke:#b2b2b2;stroke-linejoin:round"></path><path d="M287.29,146.77h0a2.06,2.06,0,0,0,0,4,1.34,1.34,0,0,0,1.07-.58" style="fill:#11357C;stroke:#b2b2b2;stroke-linejoin:round"></path><path d="M302.69,133.65h0a1.69,1.69,0,0,0,0,3.38,1.72,1.72,0,0,0,1.2-.49" style="fill:#11357C;stroke:#b2b2b2;stroke-linejoin:round"></path><path d="M296,133.65h0a1.69,1.69,0,0,0,0,3.38,1.72,1.72,0,0,0,1.2-.49" style="fill:#11357C;stroke:#b2b2b2;stroke-linejoin:round"></path><path d="M291.67,133.65h0a1.69,1.69,0,0,0,0,3.38,1.71,1.71,0,0,0,1.19-.49" style="fill:#11357C;stroke:#b2b2b2;stroke-linejoin:round"></path><path d="M304.85,125.11h0a1.39,1.39,0,1,0,1,2.37" style="fill:#11357C;stroke:#b2b2b2;stroke-linejoin:round"></path><path d="M300,125.11h0a1.39,1.39,0,1,0,0,2.78,1.33,1.33,0,0,0,1-.41" style="fill:#11357C;stroke:#b2b2b2;stroke-linejoin:round"></path><path d="M296.24,125.11h0a1.39,1.39,0,1,0,0,2.78,1.35,1.35,0,0,0,1-.41" style="fill:#11357C;stroke:#b2b2b2;stroke-linejoin:round"></path><path d="M303.39,118.5h0a1,1,0,1,0,.74,1.78" style="fill:#11357C;stroke:#b2b2b2;stroke-linejoin:round"></path><path d="M299.41,118.5h0a1,1,0,1,0,.74,1.78" style="fill:#11357C;stroke:#b2b2b2;stroke-linejoin:round"></path><path d="M298.62,163.46h0a2,2,0,1,0,1.41,3.39" style="fill:#11357C;stroke:#b2b2b2;stroke-linejoin:round"></path><path d="M290.87,163.46h0a2,2,0,1,0,1.41,3.39" style="fill:#11357C;stroke:#b2b2b2;stroke-linejoin:round"></path><path d="M284.41,163.46h0a2,2,0,1,0,1.41,3.39" style="fill:#11357C;stroke:#b2b2b2;stroke-linejoin:round"></path><path d="M333.54,146.77h0a2,2,0,1,0,1.41,3.39" style="fill:#11357C;stroke:#b2b2b2;stroke-linejoin:round"></path><path d="M341.23,146.77h0a1.79,1.79,0,0,0-1.51,2c0,1.1.67,2,1.51,2a1.36,1.36,0,0,0,1.07-.58" style="fill:#11357C;stroke:#b2b2b2;stroke-linejoin:round"></path><path d="M346.72,146.77h0a2.06,2.06,0,0,0,0,4,1.37,1.37,0,0,0,1.07-.58" style="fill:#11357C;stroke:#b2b2b2;stroke-linejoin:round"></path><path d="M331.37,133.65h0a1.69,1.69,0,1,0,1.19,2.89" style="fill:#11357C;stroke:#b2b2b2;stroke-linejoin:round"></path><path d="M338,133.65h0a1.69,1.69,0,1,0,1.19,2.89" style="fill:#11357C;stroke:#b2b2b2;stroke-linejoin:round"></path><path d="M342.4,133.65h0a1.69,1.69,0,0,0,0,3.38,1.71,1.71,0,0,0,1.19-.49" style="fill:#11357C;stroke:#b2b2b2;stroke-linejoin:round"></path><path d="M329.12,125.11h0a1.39,1.39,0,1,0,0,2.78,1.33,1.33,0,0,0,1-.41" style="fill:#11357C;stroke:#b2b2b2;stroke-linejoin:round"></path><path d="M334,125.11h0a1.39,1.39,0,1,0,1,2.37" style="fill:#11357C;stroke:#b2b2b2;stroke-linejoin:round"></path><path d="M337.74,125.11h0a1.39,1.39,0,1,0,0,2.78,1.35,1.35,0,0,0,1-.41" style="fill:#11357C;stroke:#b2b2b2;stroke-linejoin:round"></path><path d="M330.48,118.5h0a1,1,0,1,0,.74,1.78" style="fill:#11357C;stroke:#b2b2b2;stroke-linejoin:round"></path><path d="M326.49,118.5h0a1,1,0,1,0,.74,1.78" style="fill:#11357C;stroke:#b2b2b2;stroke-linejoin:round"></path><path d="M334.46,118.5h0a1,1,0,1,0,.74,1.78" style="fill:#11357C;stroke:#b2b2b2;stroke-linejoin:round"></path><path d="M335.53,163.46h0a2,2,0,1,0,0,4,2,2,0,0,0,1.4-.58" style="fill:#11357C;stroke:#b2b2b2;stroke-linejoin:round"></path><path d="M343.28,163.46h0a2,2,0,1,0,0,4,2,2,0,0,0,1.4-.58" style="fill:#11357C;stroke:#b2b2b2;stroke-linejoin:round"></path><path d="M349.73,163.46h0a2,2,0,1,0,1.41,3.39" style="fill:#11357C;stroke:#b2b2b2;stroke-linejoin:round"></path><circle cx="308.95" cy="165.05" r="1.79" style="fill:#11357C;stroke:#b2b2b2;stroke-linejoin:round"></circle><circle cx="308.95" cy="147.96" r="1.79" style="fill:#11357C;stroke:#b2b2b2;stroke-linejoin:round"></circle><path d="M310.74,135.24A1.79,1.79,0,1,0,309,137,1.79,1.79,0,0,0,310.74,135.24Z" style="fill:#11357C;stroke:#b2b2b2;stroke-linejoin:round"></path><path d="M311.73,126.5a1.39,1.39,0,1,0-1.39,1.39A1.39,1.39,0,0,0,311.73,126.5Z" style="fill:#11357C;stroke:#b2b2b2;stroke-linejoin:round"></path><path d="M313.52,119.65a1.49,1.49,0,1,0-1.49,1.49A1.48,1.48,0,0,0,313.52,119.65Z" style="fill:#11357C;stroke:#b2b2b2;stroke-linejoin:round"></path><path d="M318.39,119.65a1.49,1.49,0,1,0-1.49,1.49A1.49,1.49,0,0,0,318.39,119.65Z" style="fill:#11357C;stroke:#b2b2b2;stroke-linejoin:round"></path><path d="M323.26,119.65a1.49,1.49,0,1,0-1.49,1.49A1.49,1.49,0,0,0,323.26,119.65Z" style="fill:#11357C;stroke:#b2b2b2;stroke-linejoin:round"></path><path d="M318.29,126.5a1.39,1.39,0,1,0-1.39,1.39A1.39,1.39,0,0,0,318.29,126.5Z" style="fill:#11357C;stroke:#b2b2b2;stroke-linejoin:round"></path><path d="M324.25,126.5a1.39,1.39,0,1,0-1.39,1.39A1.39,1.39,0,0,0,324.25,126.5Z" style="fill:#11357C;stroke:#b2b2b2;stroke-linejoin:round"></path><path d="M318.49,135.24A1.79,1.79,0,1,0,316.7,137,1.79,1.79,0,0,0,318.49,135.24Z" style="fill:#11357C;stroke:#b2b2b2;stroke-linejoin:round"></path><path d="M325.64,135.24a1.79,1.79,0,1,0-1.79,1.79A1.79,1.79,0,0,0,325.64,135.24Z" style="fill:#11357C;stroke:#b2b2b2;stroke-linejoin:round"></path><circle cx="317.1" cy="147.96" r="1.79" style="fill:#11357C;stroke:#b2b2b2;stroke-linejoin:round"></circle><circle cx="325.44" cy="147.96" r="1.79" style="fill:#11357C;stroke:#b2b2b2;stroke-linejoin:round"></circle><circle cx="317.5" cy="165.05" r="1.79" style="fill:#11357C;stroke:#b2b2b2;stroke-linejoin:round"></circle><circle cx="326.84" cy="165.05" r="1.79" style="fill:#11357C;stroke:#b2b2b2;stroke-linejoin:round"></circle><rect x="272.54" y="196.22" width="88.83" height="9.35" style="fill:#fff;stroke:#b2b2b2;stroke-linejoin:round"></rect><rect x="279.2" y="208.34" width="3.89" height="17.94" style="fill:#fff;stroke:#b2b2b2;stroke-linejoin:round"></rect><rect x="278.24" y="205.58" width="5.66" height="2.99" style="fill:#fff;stroke:#b2b2b2;stroke-linejoin:round"></rect><rect x="278.24" y="224.7" width="5.66" height="2.99" style="fill:#fff;stroke:#b2b2b2;stroke-linejoin:round"></rect><rect x="289.71" y="208.34" width="3.89" height="17.94" style="fill:#fff;stroke:#b2b2b2;stroke-linejoin:round"></rect><rect x="288.75" y="205.58" width="5.66" height="2.99" style="fill:#fff;stroke:#b2b2b2;stroke-linejoin:round"></rect><rect x="288.75" y="224.7" width="5.66" height="2.99" style="fill:#fff;stroke:#b2b2b2;stroke-linejoin:round"></rect><rect x="300.22" y="208.34" width="3.89" height="17.94" style="fill:#fff;stroke:#b2b2b2;stroke-linejoin:round"></rect><rect x="299.26" y="205.58" width="5.66" height="2.99" style="fill:#fff;stroke:#b2b2b2;stroke-linejoin:round"></rect><rect x="299.26" y="224.7" width="5.66" height="2.99" style="fill:#fff;stroke:#b2b2b2;stroke-linejoin:round"></rect><rect x="310.73" y="208.34" width="3.89" height="17.94" style="fill:#fff;stroke:#b2b2b2;stroke-linejoin:round"></rect><rect x="309.77" y="205.58" width="5.66" height="2.99" style="fill:#fff;stroke:#b2b2b2;stroke-linejoin:round"></rect><rect x="309.77" y="224.7" width="5.66" height="2.99" style="fill:#fff;stroke:#b2b2b2;stroke-linejoin:round"></rect><rect x="321.24" y="208.34" width="3.89" height="17.94" style="fill:#fff;stroke:#b2b2b2;stroke-linejoin:round"></rect><rect x="320.28" y="205.58" width="5.66" height="2.99" style="fill:#fff;stroke:#b2b2b2;stroke-linejoin:round"></rect><rect x="320.28" y="224.7" width="5.66" height="2.99" style="fill:#fff;stroke:#b2b2b2;stroke-linejoin:round"></rect><rect x="331.75" y="208.34" width="3.89" height="17.94" style="fill:#fff;stroke:#b2b2b2;stroke-linejoin:round"></rect><rect x="330.79" y="205.58" width="5.66" height="2.99" style="fill:#fff;stroke:#b2b2b2;stroke-linejoin:round"></rect><rect x="330.79" y="224.7" width="5.66" height="2.99" style="fill:#fff;stroke:#b2b2b2;stroke-linejoin:round"></rect><rect x="342.26" y="208.34" width="3.89" height="17.94" style="fill:#fff;stroke:#b2b2b2;stroke-linejoin:round"></rect><rect x="341.3" y="205.58" width="5.66" height="2.99" style="fill:#fff;stroke:#b2b2b2;stroke-linejoin:round"></rect><rect x="341.3" y="224.7" width="5.66" height="2.99" style="fill:#fff;stroke:#b2b2b2;stroke-linejoin:round"></rect><rect x="352.77" y="208.34" width="3.89" height="17.94" style="fill:#fff;stroke:#b2b2b2;stroke-linejoin:round"></rect><rect x="351.81" y="205.58" width="5.66" height="2.99" style="fill:#fff;stroke:#b2b2b2;stroke-linejoin:round"></rect><rect x="351.81" y="224.7" width="5.66" height="2.99" style="fill:#fff;stroke:#b2b2b2;stroke-linejoin:round"></rect><rect x="271.23" y="254.25" width="91.46" height="9.35" style="fill:#fff;stroke:#b2b2b2;stroke-linejoin:round"></rect><rect x="274.18" y="292.6" width="108.5" height="98.76" style="fill:#fff;stroke:#b2b2b2;stroke-linejoin:round"></rect><rect x="281.22" y="332.4" width="94.43" height="58.95" style="fill:#b2b2b2;stroke:#b2b2b2;stroke-linejoin:round"></rect><rect x="271.23" y="263.42" width="91.46" height="26.88" style="fill:#fff;stroke:#b2b2b2;stroke-linejoin:round"></rect><polygon points="383.67 294.24 272.54 294.24 279.72 274.57 376.49 274.57 383.67 294.24" style="fill:#fff;stroke:#b2b2b2;stroke-linejoin:round"></polygon><polygon points="349.9 274.57 306.31 274.57 309.12 254.9 347.09 254.9 349.9 274.57" style="fill:#fff;stroke:#b2b2b2;stroke-linejoin:round"></polygon><polygon points="344.61 254.25 311.6 254.25 313.74 247.36 342.47 247.36 344.61 254.25" style="fill:#fff;stroke:#b2b2b2;stroke-linejoin:round"></polygon><path d="M312.66,235.71s-1.9,1.38-1.21,2.07a13.37,13.37,0,0,1,1.38,1.73v-2.25l1.21,2.08.18,2.07s-.87.52-.18,2.07a7.65,7.65,0,0,0,.9,1.55h1.52v-1.55h1V245h1.9v-1.2H321V245h1.55v-1.72h2.08V245h.69v-1h1.21v1h1.2v-1.55H331V245h1.39v-.86h1.2V245h1.9v-1.55h1.73V245h1.37l-.33-3.45s1.72-2.59,2.24-3.45a13.45,13.45,0,0,0,.86-1.73l.35,1.9,1-.86-.52-4.15-1.56-.34.52-.87.35-1.38s-3.63,0-4.32,1-.17,4.14-.17,4.14l-1.56,2.25-.69.34-2.07-1.21-.34-2.59v-2.76h-3.63l-.52-5.7,2.07,1.38.35,1.9,1.73-.34s-.35-2.25-1-2.59a11.51,11.51,0,0,1-2.07-2.07s.17-1.38-2.07-1.38c0,0-.18-2.77-1.21-2.42s-1,2.42-1,2.42l-1.55-.7s-1.73-3.62-2.25-3.28-.34,1.21,0,1.9a31.09,31.09,0,0,1,1,3.46l2.42,2.24-.52,2.94-.17,2.76H322l-2.08,5.35-2.59.35a18.64,18.64,0,0,1-1.9-3.28,23.82,23.82,0,0,0-1.38-3.46,1.26,1.26,0,0,0-1-.69c-.69,0-2.25.18-2.25,1.38s1.38,1.21,1.38,1.21Z" style="fill:#11357C;stroke:#b2b2b2;stroke-linejoin:round"></path><polygon points="344.66 247.55 310.57 247.55 312.27 244.6 342.95 244.6 344.66 247.55" style="fill:#fff;stroke:#b2b2b2;stroke-linejoin:round"></polygon><polygon points="330.24 293.44 271.23 318.97 389.24 318.97 330.24 293.44" style="fill:#fff;stroke:#b2b2b2;stroke-linejoin:round"></polygon><polygon points="330.24 297.31 285.39 315.72 375.08 315.72 330.24 297.31" style="fill:#fff;stroke:#b2b2b2;stroke-linejoin:round"></polygon><rect x="279.75" y="319.15" width="100.31" height="13.44" style="fill:#fff;stroke:#b2b2b2;stroke-linejoin:round"></rect><rect x="279.87" y="332.59" width="8.59" height="2.39" style="fill:#fff;stroke:#b2b2b2;stroke-linejoin:round"></rect><polygon points="286.57 339.17 281.76 339.17 281.49 335.04 286.84 335.04 286.57 339.17" style="fill:#fff;stroke:#b2b2b2;stroke-linejoin:round"></polygon><polygon points="286.92 391.1 281.42 391.1 281.69 339.17 286.64 339.17 286.92 391.1" style="fill:#fff;stroke:#b2b2b2;stroke-linejoin:round"></polygon><rect x="298.06" y="332.59" width="8.59" height="2.39" style="fill:#fff;stroke:#b2b2b2;stroke-linejoin:round"></rect><polygon points="304.76 339.17 299.95 339.17 299.69 335.04 305.03 335.04 304.76 339.17" style="fill:#fff;stroke:#b2b2b2;stroke-linejoin:round"></polygon><polygon points="305.11 391.1 299.61 391.1 299.88 339.17 304.83 339.17 305.11 391.1" style="fill:#fff;stroke:#b2b2b2;stroke-linejoin:round"></polygon><rect x="316.25" y="332.59" width="8.59" height="2.39" style="fill:#fff;stroke:#b2b2b2;stroke-linejoin:round"></rect><polygon points="322.95 339.17 318.15 339.17 317.88 335.04 323.22 335.04 322.95 339.17" style="fill:#fff;stroke:#b2b2b2;stroke-linejoin:round"></polygon><polygon points="323.3 391.1 317.8 391.1 318.08 339.17 323.03 339.17 323.3 391.1" style="fill:#fff;stroke:#b2b2b2;stroke-linejoin:round"></polygon><rect x="334.45" y="332.59" width="8.59" height="2.39" style="fill:#fff;stroke:#b2b2b2;stroke-linejoin:round"></rect><polygon points="341.15 339.17 336.34 339.17 336.07 335.04 341.42 335.04 341.15 339.17" style="fill:#fff;stroke:#b2b2b2;stroke-linejoin:round"></polygon><polygon points="341.49 391.1 335.99 391.1 336.27 339.17 341.22 339.17 341.49 391.1" style="fill:#fff;stroke:#b2b2b2;stroke-linejoin:round"></polygon><rect x="352.64" y="332.59" width="8.59" height="2.39" style="fill:#fff;stroke:#b2b2b2;stroke-linejoin:round"></rect><polygon points="359.34 339.17 354.53 339.17 354.26 335.04 359.61 335.04 359.34 339.17" style="fill:#fff;stroke:#b2b2b2;stroke-linejoin:round"></polygon><polygon points="359.69 391.1 354.19 391.1 354.46 339.17 359.41 339.17 359.69 391.1" style="fill:#fff;stroke:#b2b2b2;stroke-linejoin:round"></polygon><rect x="370.83" y="332.59" width="8.59" height="2.39" style="fill:#fff;stroke:#b2b2b2;stroke-linejoin:round"></rect><polygon points="377.53 339.17 372.73 339.17 372.46 335.04 377.8 335.04 377.53 339.17" style="fill:#fff;stroke:#b2b2b2;stroke-linejoin:round"></polygon><polygon points="377.88 391.1 372.38 391.1 372.65 339.17 377.6 339.17 377.88 391.1" style="fill:#fff;stroke:#b2b2b2;stroke-linejoin:round"></polygon><polygon points="377.96 278.61 376.49 274.57 279.72 274.57 278.25 278.61 377.96 278.61" style="fill:#fff;stroke:#b2b2b2;stroke-linejoin:round"></polygon><polygon points="582.34 289.14 509.66 289.14 540.18 277.94 551.81 277.94 582.34 289.14" style="fill:#fff;stroke:#b2b2b2;stroke-linejoin:round"></polygon><rect x="495.46" y="285.78" width="93.33" height="21.36" style="fill:#fff;stroke:#b2b2b2;stroke-linejoin:round"></rect><rect x="495.46" y="285.78" width="15.55" height="21.36" style="fill:#fff;stroke:#b2b2b2;stroke-linejoin:round"></rect><rect x="495.46" y="297.97" width="101.14" height="9.17" style="fill:#fff;stroke:#b2b2b2;stroke-linejoin:round"></rect><rect x="495.46" y="325.48" width="101.14" height="6.45" style="fill:#fff;stroke:#b2b2b2;stroke-linejoin:round"></rect><rect x="495.46" y="297.97" width="9.78" height="9.17" style="fill:#fff;stroke:#b2b2b2;stroke-linejoin:round"></rect><rect x="495.46" y="307.18" width="93.67" height="84.53" style="fill:#b2b2b2;stroke:#b2b2b2;stroke-linejoin:round"></rect><rect x="495.46" y="307.18" width="15.55" height="84.53" style="fill:#b2b2b2;stroke:#b2b2b2;stroke-linejoin:round"></rect><rect x="495.46" y="307.18" width="93.67" height="35.29" style="fill:#fff;stroke:#b2b2b2;stroke-linejoin:round"></rect><rect x="495.46" y="307.18" width="15.55" height="35.29" style="fill:#fff;stroke:#b2b2b2;stroke-linejoin:round"></rect><rect x="521.89" y="309.52" width="14.26" height="13.92" style="fill:#fff;stroke:#b2b2b2;stroke-linejoin:round"></rect><rect x="500.83" y="309.52" width="5.43" height="13.92" style="fill:#fff;stroke:#b2b2b2;stroke-linejoin:round"></rect><rect x="540.23" y="309.52" width="14.26" height="13.92" style="fill:#fff;stroke:#b2b2b2;stroke-linejoin:round"></rect><rect x="558.56" y="309.52" width="14.26" height="13.92" style="fill:#fff;stroke:#b2b2b2;stroke-linejoin:round"></rect><rect x="534.47" y="342.65" width="8.59" height="2.39" style="fill:#fff;stroke:#b2b2b2;stroke-linejoin:round"></rect><polygon points="541.17 349.23 536.37 349.23 536.1 345.1 541.44 345.1 541.17 349.23" style="fill:#fff;stroke:#b2b2b2;stroke-linejoin:round"></polygon><polygon points="541.52 391.43 536.02 391.43 536.29 349.23 541.24 349.23 541.52 391.43" style="fill:#fff;stroke:#b2b2b2;stroke-linejoin:round"></polygon><rect x="511.52" y="342.65" width="8.59" height="2.39" style="fill:#fff;stroke:#b2b2b2;stroke-linejoin:round"></rect><polygon points="518.22 349.23 513.41 349.23 513.15 345.1 518.49 345.1 518.22 349.23" style="fill:#fff;stroke:#b2b2b2;stroke-linejoin:round"></polygon><polygon points="518.57 391.43 513.07 391.43 513.34 349.23 518.29 349.23 518.57 391.43" style="fill:#fff;stroke:#b2b2b2;stroke-linejoin:round"></polygon><rect x="524.57" y="347.7" width="5.9" height="10.32" style="fill:#5c5c5c;stroke:#b2b2b2;stroke-linejoin:round"></rect><rect x="554.51" y="342.65" width="8.59" height="2.39" style="fill:#fff;stroke:#b2b2b2;stroke-linejoin:round"></rect><polygon points="561.21 349.23 556.4 349.23 556.14 345.1 561.48 345.1 561.21 349.23" style="fill:#fff;stroke:#b2b2b2;stroke-linejoin:round"></polygon><polygon points="561.56 391.43 556.06 391.43 556.33 349.23 561.28 349.23 561.56 391.43" style="fill:#fff;stroke:#b2b2b2;stroke-linejoin:round"></polygon><rect x="544.61" y="347.7" width="5.9" height="10.32" style="fill:#5c5c5c;stroke:#b2b2b2;stroke-linejoin:round"></rect><rect x="574.55" y="342.65" width="8.59" height="2.39" style="fill:#fff;stroke:#b2b2b2;stroke-linejoin:round"></rect><polygon points="581.25 349.23 576.44 349.23 576.17 345.1 581.52 345.1 581.25 349.23" style="fill:#fff;stroke:#b2b2b2;stroke-linejoin:round"></polygon><polygon points="581.59 391.43 576.1 391.43 576.37 349.23 581.32 349.23 581.59 391.43" style="fill:#fff;stroke:#b2b2b2;stroke-linejoin:round"></polygon><rect x="564.65" y="347.7" width="5.9" height="10.32" style="fill:#5c5c5c;stroke:#b2b2b2;stroke-linejoin:round"></rect><path d="M545.9,255.1s-1.75-.5-.75-2.75c0,0-3.5,2-3,4.5a2.29,2.29,0,0,0,2.75,2l-.25,4h-1.5v8.5h5.75v-8.5h-1.5v-4.49s4.75-2,1-5.75C548.4,252.6,549.15,255.6,545.9,255.1Z" style="fill:#11357C;stroke:#b2b2b2;stroke-linejoin:round"></path><polygon points="551.56 277.83 552.64 271.09 538.9 271.09 539.96 277.83 551.56 277.83" style="fill:#11357C;stroke:#b2b2b2;stroke-linejoin:round"></polygon><polygon points="161.54 289.14 88.86 289.14 119.39 277.94 131.02 277.94 161.54 289.14" style="fill:#fff;stroke:#b2b2b2;stroke-linejoin:round"></polygon><rect x="74.67" y="285.78" width="93.33" height="21.36" style="fill:#fff;stroke:#b2b2b2;stroke-linejoin:round"></rect><rect x="74.67" y="285.78" width="15.55" height="21.36" style="fill:#fff;stroke:#b2b2b2;stroke-linejoin:round"></rect><rect x="74.67" y="297.97" width="101.14" height="9.17" style="fill:#fff;stroke:#b2b2b2;stroke-linejoin:round"></rect><rect x="74.67" y="325.48" width="101.14" height="6.45" style="fill:#fff;stroke:#b2b2b2;stroke-linejoin:round"></rect><rect x="74.67" y="297.97" width="9.78" height="9.17" style="fill:#fff;stroke:#b2b2b2;stroke-linejoin:round"></rect><rect x="74.67" y="307.18" width="93.67" height="84.53" style="fill:#b2b2b2;stroke:#b2b2b2;stroke-linejoin:round"></rect><rect x="74.67" y="307.18" width="15.55" height="84.53" style="fill:#b2b2b2;stroke:#b2b2b2;stroke-linejoin:round"></rect><rect x="74.67" y="307.18" width="93.67" height="35.29" style="fill:#fff;stroke:#b2b2b2;stroke-linejoin:round"></rect><rect x="74.67" y="307.18" width="15.55" height="35.29" style="fill:#fff;stroke:#b2b2b2;stroke-linejoin:round"></rect><rect x="101.09" y="309.52" width="14.26" height="13.92" style="fill:#fff;stroke:#b2b2b2;stroke-linejoin:round"></rect><rect x="80.03" y="309.52" width="5.43" height="13.92" style="fill:#fff;stroke:#b2b2b2;stroke-linejoin:round"></rect><rect x="119.43" y="309.52" width="14.26" height="13.92" style="fill:#fff;stroke:#b2b2b2;stroke-linejoin:round"></rect><rect x="137.77" y="309.52" width="14.26" height="13.92" style="fill:#fff;stroke:#b2b2b2;stroke-linejoin:round"></rect><rect x="113.68" y="342.65" width="8.59" height="2.39" style="fill:#fff;stroke:#b2b2b2;stroke-linejoin:round"></rect><polygon points="120.38 349.23 115.57 349.23 115.3 345.1 120.65 345.1 120.38 349.23" style="fill:#fff;stroke:#b2b2b2;stroke-linejoin:round"></polygon><polygon points="120.72 391.43 115.22 391.43 115.5 349.23 120.45 349.23 120.72 391.43" style="fill:#fff;stroke:#b2b2b2;stroke-linejoin:round"></polygon><rect x="90.73" y="342.65" width="8.59" height="2.39" style="fill:#fff;stroke:#b2b2b2;stroke-linejoin:round"></rect><polygon points="97.43 349.23 92.62 349.23 92.35 345.1 97.69 345.1 97.43 349.23" style="fill:#fff;stroke:#b2b2b2;stroke-linejoin:round"></polygon><polygon points="97.77 391.43 92.27 391.43 92.55 349.23 97.5 349.23 97.77 391.43" style="fill:#fff;stroke:#b2b2b2;stroke-linejoin:round"></polygon><rect x="103.78" y="347.7" width="5.9" height="10.32" style="fill:#5c5c5c;stroke:#b2b2b2;stroke-linejoin:round"></rect><rect x="133.72" y="342.65" width="8.59" height="2.39" style="fill:#fff;stroke:#b2b2b2;stroke-linejoin:round"></rect><polygon points="140.42 349.23 135.61 349.23 135.34 345.1 140.68 345.1 140.42 349.23" style="fill:#fff;stroke:#b2b2b2;stroke-linejoin:round"></polygon><polygon points="140.76 391.43 135.26 391.43 135.54 349.23 140.49 349.23 140.76 391.43" style="fill:#fff;stroke:#b2b2b2;stroke-linejoin:round"></polygon><rect x="123.82" y="347.7" width="5.9" height="10.32" style="fill:#5c5c5c;stroke:#b2b2b2;stroke-linejoin:round"></rect><rect x="153.75" y="342.65" width="8.59" height="2.39" style="fill:#fff;stroke:#b2b2b2;stroke-linejoin:round"></rect><polygon points="160.45 349.23 155.65 349.23 155.38 345.1 160.72 345.1 160.45 349.23" style="fill:#fff;stroke:#b2b2b2;stroke-linejoin:round"></polygon><polygon points="160.8 391.43 155.3 391.43 155.57 349.23 160.52 349.23 160.8 391.43" style="fill:#fff;stroke:#b2b2b2;stroke-linejoin:round"></polygon><rect x="143.85" y="347.7" width="5.9" height="10.32" style="fill:#5c5c5c;stroke:#b2b2b2;stroke-linejoin:round"></rect><path d="M125.1,255.1s-1.74-.5-.74-2.75c0,0-3.5,2-3,4.5a2.29,2.29,0,0,0,2.75,2l-.25,4h-1.5v8.5h5.74v-8.5h-1.5v-4.49s4.75-2,1-5.75C127.6,252.6,128.35,255.6,125.1,255.1Z" style="fill:#11357C;stroke:#b2b2b2;stroke-linejoin:round"></path><polygon points="130.76 277.83 131.85 271.09 118.11 271.09 119.16 277.83 130.76 277.83" style="fill:#11357C;stroke:#b2b2b2;stroke-linejoin:round"></polygon></g><g id="freepik--Monument--inject-34"><rect x="335.73" y="326.04" width="127.09" height="9.69" style="fill:#fff;stroke:#263238;stroke-linejoin:round"></rect><polygon points="462.82 326.31 335.73 326.31 360.77 316.62 427.54 316.62 462.82 326.31" style="fill:#fff;stroke:#263238;stroke-linejoin:round"></polygon><path d="M447.64,305.31a2,2,0,0,0,.81-1.89c-.27-1.07-2.7-2.15-2.7-2.15l-5.92-5.66s-.54-.8-1.88-2.69-2.7-2.69-2.7-4,.54-1.34,1.35-1.61,1.08-2.16,0-4.58a2.15,2.15,0,0,0-3.23-1.08v-3.23l1.61-2.69a8.5,8.5,0,0,0,1.08-3,20.6,20.6,0,0,0-.27-2.69l-.81-5.12-1.07,5.92a16.55,16.55,0,0,1-2.16,1.35c-1.07.54-.27,2.15-.27,2.15l-3,2.7.54,33.38,2.69,3.24,1.89,2.69,3.23,2.42,1.88,1.89h3.77l2.43-.27-.27-1.35.27-2.15s1.88-2.16,3-3.5.81-4.85.81-4.85a3.93,3.93,0,0,0,2.15-.81C452,306.92,447.64,305.31,447.64,305.31Zm-3.5-.54L436.6,301l1.62-1.62,5.11,1.62,1.08,2.15Z" style="fill:#263238;stroke:#263238;stroke-linejoin:round"></path><path d="M443.06,307.73l1.62-.81-.54-2.15L436.6,301l1.62-1.62s-.54-3-.54-3.77-3.23,1.08-3.23,1.08-1.35,2.16-2.43,4a12.21,12.21,0,0,0-1.34,3.23s10-1.34,6.46.81a45.84,45.84,0,0,0-5.66,4s10-2.69,9.7-1.08-.54,2.69-.54,2.69Z" style="fill:#696969;stroke:#263238;stroke-linejoin:round"></path><rect x="369.65" y="244.19" width="48.47" height="82.12" style="fill:#fff;stroke:#263238;stroke-linejoin:round"></rect><rect x="380.69" y="244.19" width="48.47" height="82.12" style="fill:#fff;stroke:#263238;stroke-linejoin:round"></rect><path d="M359.69,281.88s-2.69-2.15-4.31-1.07-3,4-2.15,4.3,1.88.54,1.88.54l-.53,1.62-4.58.54-6.46-2.7a1.32,1.32,0,0,0,.27,1.89,3.46,3.46,0,0,0,1.88.81s2.15,2.15,3.23,2.15H354l1.34,2.15,2.16,1.35,1.61,4.31.54,2.42s0,1.35-1.08,1.35-4-.81-5.38,0-4.58,4.31-4.31,5.11,5.66,9.43,5.66,9.43l-4.85,1.08v4.3h22.62V276.23h-4.58l-.81-3.5s-2.69-2.43-3.23-.54a9.46,9.46,0,0,0,.54,5.65,12.18,12.18,0,0,0,2.69,2.7,28.15,28.15,0,0,0-3.77,1.07l-3-10.77.81-3.23-2.7,1.62s-1.88-1.62-1.61,0a5.93,5.93,0,0,0,1.88,3Z" style="fill:#696969;stroke:#263238;stroke-linejoin:round"></path><path d="M367,272.73s-2.69-2.43-3.23-.54a9.46,9.46,0,0,0,.54,5.65,12.18,12.18,0,0,0,2.69,2.7,28.15,28.15,0,0,0-3.77,1.07l-3-10.77.81-3.23-2.7,1.62s-1.88-1.62-1.61,0a5.93,5.93,0,0,0,1.88,3l1.08,9.69a8.36,8.36,0,0,0-1-.64c.49,1.08.66,2.37-1.18,2.53l3,.81,2.69,3,.81,4.31.81,3,3.5,4.84a12.4,12.4,0,0,0,.27,2.7,5.69,5.69,0,0,1,.27,1.61l-1.62,2.43a12.78,12.78,0,0,0-2.69.26c-.81.27-4.31,0-3.5-1.07s4-2.16,1.61-2.43-4.57,2.43-4.57,2.43-.54.54.26,1.07a2.53,2.53,0,0,1,.81,1.89H354c-.81,0-3.5-1.62-3.5-1.62l-.63,1.53c1.63,2.77,4.67,7.63,4.67,7.63l-4.85,1.08v4.3h22.62V276.23h-4.58Z" style="fill:#263238;stroke:#263238;stroke-linejoin:round"></path><rect x="364.54" y="326.04" width="71.35" height="9.69" style="fill:#fff;stroke:#263238;stroke-linejoin:round"></rect><rect x="371" y="326.04" width="58.43" height="9.69" style="fill:#fff;stroke:#263238;stroke-linejoin:round"></rect><rect x="377.46" y="326.04" width="45.5" height="9.69" style="fill:#fff;stroke:#263238;stroke-linejoin:round"></rect><rect x="340.42" y="335.73" width="119.85" height="18.85" style="fill:#fff;stroke:#263238;stroke-linejoin:round"></rect><polygon points="465.24 368.05 335.46 368.05 339.71 354.58 460.99 354.58 465.24 368.05" style="fill:#fff;stroke:#263238;stroke-linejoin:round"></polygon><rect x="364.26" y="335.73" width="72.18" height="18.85" style="fill:#fff;stroke:#263238;stroke-linejoin:round"></rect><polygon points="443.97 368.05 356.73 368.05 359.59 354.58 441.11 354.58 443.97 368.05" style="fill:#fff;stroke:#263238;stroke-linejoin:round"></polygon><rect x="370.72" y="335.73" width="59.26" height="18.85" style="fill:#fff;stroke:#263238;stroke-linejoin:round"></rect><polygon points="436.16 368.05 364.54 368.05 366.88 354.58 433.81 354.58 436.16 368.05" style="fill:#fff;stroke:#263238;stroke-linejoin:round"></polygon><rect x="377.46" y="335.73" width="45.77" height="18.85" style="fill:#fff;stroke:#263238;stroke-linejoin:round"></rect><polygon points="428.01 368.05 372.69 368.05 374.5 354.58 426.2 354.58 428.01 368.05" style="fill:#fff;stroke:#263238;stroke-linejoin:round"></polygon><path d="M429.7,174.18c0-.81-1.35-5.12-2.69-6.46s-9.43-6.73-9.43-6.73a9.45,9.45,0,0,0-4.58-6.2c-3.77-1.88-4.3-.27-4.3-.27v-1.77a4.41,4.41,0,0,0,2.15-3.88c0-2.15,0-4.85-1.35-5.65,0,0-3.5-2.16-4.84,1.88-1,2.84-.43,5.28.72,6.67l-1.53.87-9.42-2.15,1.07-9.16-.27-3.23s-3.23.54-3.23,2.15a11.77,11.77,0,0,0,.54,3.24s-3.5,5.11-1.35,8.34a22.19,22.19,0,0,0,5.39,5.39L395,188.45l-2.42-2.15s1.35-5.12-1.08-6.47-5.65,2.7-4.57,3.77a5.58,5.58,0,0,1,1.34,1.89s-4,.81-5.11,1.88-4,3.5-4,3.5h-3.5s-1.62-1.34-1.62-.26-2.15,1.34-.27,3a49.2,49.2,0,0,1,4,4l3.5,5.92s-2.15,3.77-1.08,4.58a47.11,47.11,0,0,1,4.31,5.11H388l2.43-2.42h27.73l2.15,4.85s4.31-3.24,3.5-6.2-4-5.65-4-5.65l-.27-2.42,2.42-.27-6.19-10.5,2.42-4.31a13.4,13.4,0,0,0,4.85,0c1.88-.54,4-3.77,4-3.77s2.69-1.35,2.15-2.16-4.85-.8-4.85-.8l-.54-1.62S429.7,175,429.7,174.18Zm-45.78,25-2.42-1.61-3.23-3.77,4.85-2.16.8,3.5Zm42-25.85s-3.77,2.7-5.93,3.23-6.73,3.23-6.73,3.23L413,172a37.23,37.23,0,0,1,3.77-.27c1.62,0,2.7-5.66,2.7-5.66l6.73,3.5Z" style="fill:#696969;stroke:#263238;stroke-linejoin:round"></path><path d="M419.47,201.38l.15,0-.15-3.22h-4.58l-4-16.15-8.35-8.35v-8.88a21.58,21.58,0,0,1,3.5-2.16c1.35-.54,0-3,0-3h-3l-1.88-4.58-6.73-4.57,1.07-9.16-.27-3.23s-3.23.54-3.23,2.15a11.77,11.77,0,0,0,.54,3.24s-3.5,5.11-1.35,8.34a22.19,22.19,0,0,0,5.39,5.39L395,188.45l-2.42-2.15s1.35-5.12-1.08-6.47-5.65,2.7-4.57,3.77a5.58,5.58,0,0,1,1.34,1.89s-4,.81-5.11,1.88-4,3.5-4,3.5h-3.5s-1.62-1.34-1.62-.26a.91.91,0,0,1-.17.5l-.1.3,2.43.81,2.15,1.62,4.85-2.16v1.89l.8,2.69v3l5.93.81,1.07-1.62,3-1.61.54,1.08.53,4,1.89,1.62,7.54-1.89V177.41l4,4.85,2.15,18.31,9.16,3.23Z" style="fill:#263238;stroke:#263238;stroke-linejoin:round"></path><path d="M410.31,159.91,413,172a37.23,37.23,0,0,1,3.77-.27c1.62,0,2.7-5.66,2.7-5.66l6.73,3.5-.27,3.77s-3.77,2.7-5.93,3.23-6.73,3.23-6.73,3.23l2.43,10.78,2.42-4.31a13.4,13.4,0,0,0,4.85,0c1.88-.54,4-3.77,4-3.77s2.69-1.35,2.15-2.16-4.85-.8-4.85-.8l-.54-1.62s5.93-3,5.93-3.77-1.35-5.12-2.69-6.46-9.43-6.73-9.43-6.73a9.45,9.45,0,0,0-4.58-6.2l.27,4Z" style="fill:#263238;stroke:#263238;stroke-linejoin:round"></path><path d="M408.7,154.52l.06-.11A.38.38,0,0,0,408.7,154.52Z" style="fill:#fff;stroke:#263238;stroke-linejoin:round"></path><path d="M405.38,151.77l-1.44.82,1.26,1.67,3.5.26v-1.77a3.88,3.88,0,0,0,1.8-2.1c-.83.35-2.95,1-4.23-.7a9,9,0,0,1-1.61-4.85C403.71,147.94,404.23,150.38,405.38,151.77Z" style="fill:#263238;stroke:#263238;stroke-linejoin:round"></path><polygon points="414.62 210.8 383.65 210.8 372.35 237.46 419.26 237.46 414.62 210.8" style="fill:#fff;stroke:#263238;stroke-linejoin:round"></polygon><polygon points="418.93 210.8 387.96 210.8 383.32 237.46 427.81 237.46 418.93 210.8" style="fill:#fff;stroke:#263238;stroke-linejoin:round"></polygon><rect x="365.88" y="233.69" width="66.51" height="11.31" style="fill:#fff;stroke:#263238;stroke-linejoin:round"></rect><rect x="373.96" y="233.69" width="61.12" height="11.31" style="fill:#fff;stroke:#263238;stroke-linejoin:round"></rect><rect x="380.42" y="233.69" width="48.2" height="11.31" style="fill:#fff;stroke:#263238;stroke-linejoin:round"></rect><ellipse cx="406.41" cy="241.63" rx="12.79" ry="17.64" style="fill:#fff;stroke:#263238;stroke-linejoin:round"></ellipse><ellipse cx="406.41" cy="241.63" rx="7.94" ry="12.52" style="fill:#fff;stroke:#263238;stroke-linejoin:round"></ellipse><rect x="146.9" y="371.78" width="458.52" height="11.48" style="fill:#fff;stroke:#263238;stroke-linejoin:round"></rect><path d="M554.35,363.32s.91-1.82-1.51-3.63-5.74-3.93-5.74-3.93l2.42-1.81,1.21-2.12,5.44-3,3.92-2.72s4.54-1.81,5.74-2.41,10.58-1.51,10.58-1.51H551.33l-4.83,4.23-2.12-.31L542,343.37l-4.53-3s-17.22-.9-18.73-.9,8.76,2.72,8.76,2.72a47.22,47.22,0,0,1,3.93,3,47.78,47.78,0,0,1,3,3.93l2.72,3,1.81,5.13,2.72.31L534.41,360l-.61,3,1.21.6Z" style="fill:#263238;stroke:#263238;stroke-linejoin:round"></path><path d="M562.21,342.17H551.33l-4.83,4.23-2.12-.31L542,343.37l-4.53-3s-11.47-.6-16.51-.82l2,.52,13.29,4.23,3.33,2.42,1.81,3,3.93,2.11,2.41-.9,2.42-3.33,1.51-1.51,1.51-1.21,3.63-.3,6-.6h2.38l.64-.3c1.21-.61,10.58-1.51,10.58-1.51Z" style="fill:#696969;stroke:#263238;stroke-linejoin:round"></path><polygon points="282.69 424.77 605.42 424.77 605.42 389.61 146.9 389.61 146.9 425.57 282.69 425.57 282.69 424.77" style="fill:#fff;stroke:#263238;stroke-linejoin:round"></polygon><polyline points="605.42 367.25 146.9 367.25 146.9 371.78 605.42 371.78" style="fill:#fff;stroke:#263238;stroke-linejoin:round"></polyline><rect x="289.04" y="389.3" width="25.68" height="27.2" style="fill:#fff;stroke:#263238;stroke-linejoin:round"></rect><rect x="285.41" y="418.92" width="32.03" height="5.85" style="fill:#fff;stroke:#263238;stroke-linejoin:round"></rect><polygon points="317.44 418.92 285.42 418.92 289.04 416.2 314.73 416.2 317.44 418.92" style="fill:#fff;stroke:#263238;stroke-linejoin:round"></polygon><polyline points="314.12 398.07 288.74 398.07 242.3 398.07" style="fill:#fff;stroke:#263238;stroke-linejoin:round"></polyline><line x1="242.98" y1="405.32" x2="314.12" y2="405.32" style="fill:#fff;stroke:#263238;stroke-linejoin:round"></line><line x1="245.02" y1="412.57" x2="314.12" y2="412.57" style="fill:#fff;stroke:#263238;stroke-linejoin:round"></line><rect x="531.39" y="389.3" width="25.69" height="27.2" style="fill:#fff;stroke:#263238;stroke-linejoin:round"></rect><rect x="527.76" y="418.92" width="32.03" height="5.85" style="fill:#fff;stroke:#263238;stroke-linejoin:round"></rect><polygon points="559.79 418.92 527.76 418.92 531.39 416.2 557.07 416.2 559.79 418.92" style="fill:#fff;stroke:#263238;stroke-linejoin:round"></polygon><path d="M531.08,398.07h72" style="fill:#fff;stroke:#263238;stroke-linejoin:round"></path><line x1="531.08" y1="405.32" x2="591.82" y2="405.32" style="fill:#fff;stroke:#263238;stroke-linejoin:round"></line><line x1="531.08" y1="412.57" x2="592.73" y2="412.57" style="fill:#fff;stroke:#263238;stroke-linejoin:round"></line><polygon points="605.42 382.63 145.66 382.63 146.9 389.61 605.42 389.61 605.42 382.63" style="fill:#fff;stroke:#263238;stroke-linejoin:round"></polygon><path d="M312.91,363.32s.91-1.82-1.51-3.63-5.74-3.93-5.74-3.93l2.42-1.81,1.21-2.12,5.44-3,3.92-2.72s4.54-1.81,5.75-2.41S335,342.17,335,342.17H309.89l-4.83,4.23-2.12-.31-2.42-2.72-4.53-3s-17.22-.9-18.73-.9,8.76,2.72,8.76,2.72a47.22,47.22,0,0,1,3.93,3,47.78,47.78,0,0,1,3,3.93l2.72,3,1.81,5.13,2.72.31L293,360l-.61,3,1.21.6Z" style="fill:#263238;stroke:#263238;stroke-linejoin:round"></path><path d="M320.77,342.17H309.89l-4.83,4.23-2.12-.31-2.42-2.72-4.53-3s-11.47-.6-16.51-.82l2,.52,13.29,4.23,3.33,2.42,1.81,3,3.93,2.11,2.41-.9,2.42-3.33,1.51-1.51,1.51-1.21,3.63-.3,6-.6h2.38l.65-.3c1.2-.61,10.57-1.51,10.57-1.51Z" style="fill:#696969;stroke:#263238;stroke-linejoin:round"></path><rect x="290.25" y="362.41" width="24.17" height="4.67" style="fill:#fff;stroke:#263238;stroke-linejoin:round"></rect><rect x="290.25" y="377.98" width="24.17" height="4.67" style="fill:#fff;stroke:#263238;stroke-linejoin:round"></rect><rect x="290.25" y="366.77" width="24.17" height="11.21" style="fill:#fff;stroke:#263238;stroke-linejoin:round"></rect><rect x="531.69" y="362.41" width="24.17" height="4.67" style="fill:#fff;stroke:#263238;stroke-linejoin:round"></rect><rect x="531.69" y="377.98" width="24.17" height="4.67" style="fill:#fff;stroke:#263238;stroke-linejoin:round"></rect><rect x="531.69" y="366.77" width="24.17" height="11.21" style="fill:#fff;stroke:#263238;stroke-linejoin:round"></rect><rect x="328.32" y="371.78" width="55.9" height="5.74" style="fill:#fff;stroke:#263238;stroke-linejoin:round"></rect><rect x="238.88" y="371.78" width="36.56" height="5.74" style="fill:#fff;stroke:#263238;stroke-linejoin:round"></rect><rect x="562.96" y="371.78" width="36.56" height="5.74" style="fill:#fff;stroke:#263238;stroke-linejoin:round"></rect><rect x="399.34" y="371.78" width="55.9" height="5.74" style="fill:#fff;stroke:#263238;stroke-linejoin:round"></rect><rect x="470.35" y="371.78" width="55.9" height="5.74" style="fill:#fff;stroke:#263238;stroke-linejoin:round"></rect><path d="M349.17,413.78s.61-2.11,1.82-1.21,0,4.54,1.51,5.14a17.25,17.25,0,0,1,3.62,2.42l1.21,4.53,0,.11h139.4a5.57,5.57,0,0,1,.79-.41c.91-.3.61-1.82.91-2.72s1.81-5.74,1.81-5.74l2.42-1.82,2.72,4.54-1.21,3,2.72.3.91-2.72-4.23-6.35-3.63-1.2-2.72,4.53h-4.83l-3.33-6.35-3.32-3.32-.91-4.53s.91-4.23-.3-4.84-4.53.3-4.53.3-.91,4.23-1.21,5.14a26.32,26.32,0,0,0-.61,3l-4.53,1.21L471.56,405l-.61-3h-2.42l-1.81,3-2.11,1.21a2.38,2.38,0,0,1-2.12-.61c-.91-.9-5.74-5.13-5.74-5.13l-3.63-2.72-3-2.42-1.81-3.93.9-1.81,3.33-3.33.6-2.11-2.41.9-6-1.81-4.23-2.72-1.51-5.14L438,373l1.51-3.63s-2.11-5.74-4.53-3.62-.9,7.25-.9,7.25l-4.54-.61s-1.81-1.81-3.32-1.81H421.7l-6.65.6c-.3,1.52,3.62,3.33,3.62,3.33l-3.62,1.21,3,2.11,1.21,2.12-.61,4.23-.6,2.42-7.25,2.71s-5.14-.3-6.35.91-5.74,4.84-5.74,4.84l-3.93,2.41-4.23.91-.6,3,.3,2.42L390,405l-4.53.6h-2.72l-9.67-1.81-2.42-.3h-2.12l-1.81-4.84-4.53-4.53s-2.72-.3-2.12,1.21,1.21,3,1.21,3v4.23l1.51,1.81L357.94,412l-3.33-.3s-1.81-4.23-4.53-2.72-8.16,6.34-8.16,6.34l4.84.61Zm92.77-30.52,1.21,1.81,5.74,1.82-1.21,1.21-6,.3-1.81-3Z" style="fill:#263238;stroke:#263238;stroke-linejoin:round"></path><path d="M513.26,420.13s-1.82,2.72-2.72,2.72c-.74,0-3.69,1.4-4.76,1.92h26.07l1.65-1.92,2.72-.91,3.33-2.42,1.81-1.81,2.11.6,2.12,3.63-.47,2.83h2.12l.16-.71v-4.54L542.26,415l-4.53.91-2.72.6-2.72-3.63-1.51-1.81-1.81-.3-2.12-2.42-2.11-2.72-1.51-1.51,2.42-4.83-1.82-3.63-6.34,4.23-6.35,7.56.61,3,3,2.72L513.26,415Z" style="fill:#263238;stroke:#263238;stroke-linejoin:round"></path><path d="M360.05,414.08a31.93,31.93,0,0,1,3,1.82,20.16,20.16,0,0,0,3.33,1.81l.6-6,1.82-4.23,6.34-1.21-.3,2.72,1.81,2.11-2.11,2.12s1.51,1.81,2.72,1.81a21.38,21.38,0,0,0,3.62-.6l.61-3.63s0-1.21.9-1.21h3.93l2.72-1.81,1.81-2.12h2.72l.31-1.21-5.14.91-.34-.09-3,.39h-2.72l-9.67-1.81-2.42-.3h-2.12l-1.81-4.84-4.53-4.53s-2.72-.3-2.12,1.21l2.42,3,.6,2.72,1.51,1.81v4.23l-.9,2.12L357.94,412l-3.33-.3s-1.81-4.23-4.53-2.72-8.16,6.34-8.16,6.34l3.7.46,2.35-4.39h3.62l1.21,2.42,1.81,4.53,1.51,1.82L361,418Z" style="fill:#696969;stroke:#263238;stroke-linejoin:round"></path><path d="M390.53,398.57l8.2,2.82h1.21l-.6,3.93L398.13,408l2.72.6,3-3-2.42,8.46L399,411.67l-3.93.9-3,5.14,3.63,3.63v2.72l2.42.3,3.92-7.25,6.05-.61.6,1.51,4.23.61h2.42l4.23.9-3-1.51-3.63-4.23-1.21-2.72.31-1.81.3-3v-5.74l4.83,7.25,3.33-.3-1.51-3s-3.63-.9-3.63-2.11-1.81-4.53-1.81-4.53l2.41-6.95-2.71,2.11-9.67,5.74-.61-3.93h2.12l-.31-2.11-4.37,1.06c-.94.78-1.67,1.36-1.67,1.36l-3.93,2.41-4.23.91Z" style="fill:#696969;stroke:#263238;stroke-linejoin:round"></path><path d="M425,372.69l2.42.9.9,2.72-10.27,1.51,6.95.61h5.14L429,386v4.23s1.51,2.42,2.42,2.72,2.41-2.11,2.41-2.11l.61,2.41.6,2.12-.3,6.34-.6,5.44,2.11-9.67.61-4.83v-1.51l.3-3.33.6-5.44v-2.11l.61-1.81V374.2L434.09,373l-4.54-.61s-1.81-1.81-3.32-1.81H421.7l-6.65.6Z" style="fill:#696969;stroke:#263238;stroke-linejoin:round"></path><path d="M426.23,416.2l6.65.91,9.36-.31,2.72,2.42.61,1.51.3,1.81,1.11,2.23h9.34l.13-.11,2.72-2.42-2.42-3L452.22,418s-.31-3,.6-3,5.14,3,5.14,3l3-.6,3.63,1.21h4.23l3,1.2,4.23,3.33,2.42-3s1.81-.61,1.2-1.82a35.19,35.19,0,0,0-3.92-4.53v-3.32l-1.51-2.72-1.52,3-.3,2.11-2.72-.9L467,408.64l-2.11-.9-2.42-2.12-5.74-5.13-1.79-.95L451,397.46l4.23,5.74-5.14.91-3-3-.3-4.84-3,2.12-2.42,6-4.23.91-1.51.3L435,412v1.81L432.27,412l-3.32.6-1.81-4.23-3-.6,1.21-4.84s-4.53,2.12-4.23,3.33.91,4.83.91,4.83a3.36,3.36,0,0,1-1.51,1.51,13.34,13.34,0,0,0-2.72,1.82l3.32,3.62Z" style="fill:#696969;stroke:#263238;stroke-linejoin:round"></path><polygon points="526.85 408.34 524.74 405.62 523.23 404.11 525.64 399.28 523.83 395.65 517.49 399.88 515.22 402.58 516.28 402.9 515.67 405.32 518.39 408.95 520.81 411.97 522.32 414.69 522.32 417.71 523.23 415.9 525.34 414.08 527.16 411.67 528.97 410.76 526.85 408.34" style="fill:#696969;stroke:#263238;stroke-linejoin:round"></polygon><polygon points="545.59 421.94 545.12 424.77 547.24 424.77 547.4 424.06 547.4 419.52 542.26 414.99 543.47 418.31 545.59 421.94" style="fill:#696969;stroke:#263238;stroke-linejoin:round"></polygon><polygon points="535.01 416.5 532.29 412.88 530.78 411.06 531.69 414.69 531.99 417.41 530.78 419.52 535.01 416.5" style="fill:#fff;stroke:#263238;stroke-linejoin:round"></polygon></g><g id="freepik--Trees--inject-34"><path d="M120.05,425.6c12.2-6.86,20.1-19.55,20.1-40.53,0-35.41-22.5-87.6-50.26-87.6s-50.26,52.19-50.26,87.6c0,21,7.9,33.67,20.1,40.53Z" style="fill:#11357C"></path><path d="M120.05,425.6c12.2-6.86,20.1-19.55,20.1-40.53,0-35.41-22.5-87.6-50.26-87.6s-50.26,52.19-50.26,87.6c0,21,7.9,33.67,20.1,40.53Z" style="opacity:0.4"></path><path d="M89.45,420.74c-.23-30.9-.23-61.59,0-92.39" style="fill:none;stroke:#263238;stroke-linejoin:round"></path><line x1="89.45" y1="386.55" x2="66.77" y2="349.51" style="fill:none;stroke:#263238;stroke-linejoin:round"></line><line x1="77.73" y1="366.9" x2="60.35" y2="366.52" style="fill:none;stroke:#263238;stroke-linejoin:round"></line><line x1="90.2" y1="362.36" x2="114.77" y2="335.53" style="fill:none;stroke:#263238;stroke-linejoin:round"></line><line x1="89.42" y1="405.91" x2="121.57" y2="386.55" style="fill:none;stroke:#263238;stroke-linejoin:round"></line><polyline points="105.32 380.5 104.28 396.62 117.85 406.29" style="fill:none;stroke:#263238;stroke-linejoin:round"></polyline><line x1="89.43" y1="418.34" x2="58.53" y2="405.91" style="fill:none;stroke:#263238;stroke-linejoin:round"></line><line x1="75.84" y1="413.01" x2="70.65" y2="397.89" style="fill:none;stroke:#263238;stroke-linejoin:round"></line><line x1="106.83" y1="343.47" x2="106.08" y2="337.8" style="fill:none;stroke:#263238;stroke-linejoin:round"></line><path d="M232.2,425.6c18.3-10.29,30.14-29.3,30.14-60.74,0-53.08-33.73-131.31-75.34-131.31s-75.33,78.23-75.33,131.31c0,31.44,11.84,50.45,30.13,60.74Z" style="fill:#11357C"></path><path d="M186.34,418.32C186,372,186,326,186.34,279.83" style="fill:none;stroke:#263238;stroke-linejoin:round"></path><line x1="186.34" y1="367.07" x2="152.35" y2="311.56" style="fill:none;stroke:#263238;stroke-linejoin:round"></line><line x1="168.78" y1="337.61" x2="142.72" y2="337.05" style="fill:none;stroke:#263238;stroke-linejoin:round"></line><line x1="187.47" y1="330.82" x2="224.29" y2="290.6" style="fill:none;stroke:#263238;stroke-linejoin:round"></line><line x1="186.29" y1="396.08" x2="234.49" y2="367.07" style="fill:none;stroke:#263238;stroke-linejoin:round"></line><polyline points="210.13 358.01 208.56 382.16 228.91 396.66" style="fill:none;stroke:#263238;stroke-linejoin:round"></polyline><line x1="186.31" y1="414.72" x2="139.99" y2="396.08" style="fill:none;stroke:#263238;stroke-linejoin:round"></line><line x1="165.94" y1="406.73" x2="158.16" y2="384.07" style="fill:none;stroke:#263238;stroke-linejoin:round"></line><line x1="212.4" y1="302.49" x2="211.26" y2="293.99" style="fill:none;stroke:#263238;stroke-linejoin:round"></line><path d="M676,425.6c13.92-7.83,22.93-22.31,22.93-46.24,0-40.41-25.67-100-57.35-100s-57.34,59.55-57.34,100c0,23.93,9,38.41,22.93,46.24Z" style="fill:#11357C"></path><path d="M641.05,420.06c-.26-35.27-.26-70.29,0-105.43" style="fill:none;stroke:#263238;stroke-linejoin:round"></path><line x1="641.05" y1="381.04" x2="615.17" y2="338.78" style="fill:none;stroke:#263238;stroke-linejoin:round"></line><line x1="627.68" y1="358.62" x2="607.84" y2="358.19" style="fill:none;stroke:#263238;stroke-linejoin:round"></line><line x1="641.91" y1="353.44" x2="669.94" y2="322.82" style="fill:none;stroke:#263238;stroke-linejoin:round"></line><line x1="641.01" y1="403.13" x2="677.71" y2="381.04" style="fill:none;stroke:#263238;stroke-linejoin:round"></line><polyline points="659.16 374.14 657.97 392.53 673.46 403.57" style="fill:none;stroke:#263238;stroke-linejoin:round"></polyline><line x1="641.03" y1="417.32" x2="605.77" y2="403.13" style="fill:none;stroke:#263238;stroke-linejoin:round"></line><line x1="625.52" y1="411.23" x2="619.6" y2="393.98" style="fill:none;stroke:#263238;stroke-linejoin:round"></line><line x1="660.89" y1="331.88" x2="660.02" y2="325.41" style="fill:none;stroke:#263238;stroke-linejoin:round"></line></g><g id="freepik--Character--inject-34"><path d="M572.06,369.43s-.48.64,1.44,1.6l1.92,1,1.29-4S572.7,368.15,572.06,369.43Z" style="fill:#fff;stroke:#263238;stroke-linejoin:round"></path><path d="M575.91,367.35a121.32,121.32,0,0,0-1.45,17c0,8.17,8.17,8.17,9.45,9s38.27,4.32,43.08,4.48,4.32.8,4.32.8a67.39,67.39,0,0,1,8,6.89c2.57,2.88,1.61,7.2,3.69,7.68s3.68-4.64,2.88-9.76-3-8.81-3.2-9.93-1.76-4.65-3.2-5.13-6.25,1.61-6.25,1.61-13.29-1-17.77-2.41-11.05-4.8-13.93-5.44-9.61-1.92-9.61-1.92l2.4-8.81S585.67,363,575.91,367.35Z" style="fill:#fff;stroke:#263238;stroke-linejoin:round"></path><line x1="591.92" y1="380.16" x2="589.52" y2="387.04" style="fill:none;stroke:#263238;stroke-linejoin:round"></line><path d="M645.88,403.38c-.8-5.13-3-8.81-3.2-9.93s-1.76-4.65-3.21-5.13c-1-.33-3.68.59-5.18,1.17l1.5,5.4s-2.88-.48-3.68,1.6a13.48,13.48,0,0,0-.66,2.19,65.89,65.89,0,0,1,7.87,6.78c2.56,2.88,1.6,7.2,3.68,7.68S646.68,408.5,645.88,403.38Z" style="fill:#fff;stroke:#263238;stroke-linejoin:round"></path><path d="M581.67,331.16s-1.44,5.12-.16,6.56a4.78,4.78,0,0,1,1.28,2.89s-5.76,12.81-7.69,18.57-3,10.25-3,10.25,12-1.6,15.37,0,6.73,3.52,6.73,3.52l7.69-20.17,2.56,19.05s5.76-5,10.57-5a50.14,50.14,0,0,1,8.8.8s2.56-22.26,3.21-25.14.16-9.93.16-9.93-13.3-2.56-20.5-5S581.67,331.16,581.67,331.16Z" style="fill:#263238;stroke:#263238;stroke-linejoin:round"></path><path d="M589.36,343.65S595.6,343,597,343s13-4.65,13-4.65" style="fill:none;stroke:#7d7d7d;stroke-linejoin:round"></path><line x1="601.85" y1="352.78" x2="600.88" y2="343.33" style="fill:none;stroke:#7d7d7d;stroke-linejoin:round"></line><path d="M604.57,370.39s.8,9.77,2.88,12.33,7.85,4.32,10.41,3.68,24.34-8,28-9.77,12.49-3.2,12.49-3.2,2.72,2.72,4.8,5,3.53,7.68,4.49,9.44,2.56,1.92,3.52-.48.8-14.25,0-17.93-1-8.65-3-8.65-7.69,3.2-8.17,3.53a43.81,43.81,0,0,1-12.65,2.4c-5.12,0-14.41-1.28-17.45-.32a56,56,0,0,0-6.09,2.4l-.48-2.56S609.21,361.58,604.57,370.39Z" style="fill:#fff;stroke:#263238;stroke-linejoin:round"></path><line x1="623.78" y1="368.79" x2="624.26" y2="375.19" style="fill:none;stroke:#263238;stroke-linejoin:round"></line><path d="M671.18,369.43c-.8-3.68-1-8.65-3-8.65-1.64,0-5.44,2-7.23,3l0,.39s2.72,6.56,2.88,7-3.84.32-4.48,2.4a6.19,6.19,0,0,0-.16.65c1,1,2.62,2.67,4,4.16,2.09,2.24,3.53,7.68,4.49,9.44s2.56,1.92,3.52-.48S672,373.11,671.18,369.43Z" style="fill:#fff;stroke:#263238;stroke-linejoin:round"></path><path d="M581.52,291.51s-2,12.89-2.41,17.12,1.2,3.82,3.42,6.24,27.19,5.84,36.66,6,10.67-.4,10.88-3.62,1.2-11.48,1.2-17.73-4.83-18.33-4.83-18.33l-41.69-4.83Z" style="fill:#263238;stroke:#263238;stroke-linejoin:round"></path><path d="M696.53,242s6.85-4.23,7.46-5.24,1,2.42-.61,3.42-6.85,6.25-6.85,6.25,7.05-3,8.46-3.83,1,1.41-.8,2.42-7.86,3.82-7.86,3.82,7.46-3,7.86-1.4-10.48,3.22-11.68,3.42S696.53,242,696.53,242Z" style="fill:#fff;stroke:#263238;stroke-linejoin:round"></path><path d="M525.93,216.17a35.67,35.67,0,0,1-3.62-3.82c-.61-1-1.62,1-.41,2.41s5,5.64,5,5.64-6-4.23-6.65-4.63-1,.81.61,2.22,5.23,5,5.23,5l-5.64-2.82s-1,0,1.61,2.22a32.58,32.58,0,0,0,4.84,3.42s2.21-2.82,2-4.63S525.93,216.17,525.93,216.17Z" style="fill:#fff;stroke:#263238;stroke-linejoin:round"></path><path d="M601.87,257.87l-5-.4s-5-3-7.45-3a90.33,90.33,0,0,1-9.27-1.2L563.19,244s-6.64-4.43-9.26-7.05-22.16-12.29-22.16-12.29-3-7.65-3.62-9.26-2-7.05-2.42-5.84-1.41,1-.61,3.42a31.86,31.86,0,0,1,1,6.65s-.8,3.42-1.41,3.62-5.23-.2-6.85-1.41-2.41.21-.2,2,6.85,2.42,7.86,3.22a19.85,19.85,0,0,0,4.43,1.81S547.28,245.58,550.3,248a20.92,20.92,0,0,0,7.05,3.42l18.94,14.51,5.23,5.43s-1,17.73,0,27,2,21.56,1,26.19-5.84,8.26-6,9.67,7.65-3,16.51-3.43,25.18,7.86,29.41,7.86,11.48-3.22,11.48-3.22-2.82-1.21-6.44-7.26-4.64-19.94-4.23-23.56,4.23-19.34,4.83-21.35,3.22-5,3.22-5S649,271,650.61,270s10.27-4,10.27-4,15.51-6.05,17.73-7.05,9.06-4.23,9.06-4.23,5-.41,6.25-1.62,2.41-3.22,3.42-4.23,3.83-4.22,3.83-5.63-1.82-.21-2.42.6a10.07,10.07,0,0,1-2.82,1.81,35.71,35.71,0,0,0,3.22-6c.61-2-.2-5.24-1-4.23s-3.23,7.05-4.23,8.46a73.62,73.62,0,0,1-6,5.84s-20.14,3.83-25.17,5.44-5.44,2-6.65,2.62-19.74,4.43-19.74,4.43-5-.4-8.66-.4-4.23.8-4.23.8a57.19,57.19,0,0,0-11.28-2A31.51,31.51,0,0,1,601.87,257.87Z" style="fill:#fff;stroke:#263238;stroke-linejoin:round"></path><path d="M636.31,262.1s-5-.4-8.66-.4-4.23.8-4.23.8a57.19,57.19,0,0,0-11.28-2,31.51,31.51,0,0,1-10.27-2.62l-5-.4s-5-3-7.45-3a90.33,90.33,0,0,1-9.27-1.2L573,249.35l-1.08,13.25,4.35,3.33,5.23,5.43s-1,17.73,0,27,2,21.56,1,26.19-5.84,8.26-6,9.67,7.65-3,16.51-3.43,25.18,7.86,29.41,7.86,11.48-3.22,11.48-3.22-2.82-1.21-6.44-7.26-4.64-19.94-4.23-23.56,4.23-19.34,4.83-21.35,3.22-5,3.22-5,3.59-1.46,7.68-3.17l4.17-14.37Z" style="fill:#11357C;stroke:#263238;stroke-linejoin:round"></path><path d="M598.47,312.85c-1.53,1.06-2.76,1.91-3.45,2.42" style="fill:none;stroke:#263238;stroke-linejoin:round"></path><path d="M618.79,299.16s-10.81,7.21-18,12.13" style="fill:none;stroke:#263238;stroke-linejoin:round"></path><path d="M614.15,309.23s-12.49,9.87-18.33,14.3" style="fill:none;stroke:#263238;stroke-linejoin:round"></path><path d="M611.9,314.88a37.68,37.68,0,0,1-2.58,2.81" style="fill:none;stroke:#263238;stroke-linejoin:round"></path><path d="M620.8,303.59s-3.79,5.05-7.2,9.24" style="fill:none;stroke:#263238;stroke-linejoin:round"></path><path d="M603,285.89a27.15,27.15,0,0,1-2.73,2.39" style="fill:none;stroke:#263238;stroke-linejoin:round"></path><path d="M616.17,266.73s-5.1,10.33-11.65,17.55" style="fill:none;stroke:#263238;stroke-linejoin:round"></path><path d="M609.72,275.39s-12.08,4.84-15.51,6.65" style="fill:none;stroke:#263238;stroke-linejoin:round"></path><line x1="640.34" y1="262.7" x2="638.32" y2="273.38" style="fill:none;stroke:#263238;stroke-linejoin:round"></line><line x1="574.27" y1="251.83" x2="573.67" y2="261.49" style="fill:none;stroke:#263238;stroke-linejoin:round"></line><path d="M591.59,254.85s-8.46,11.68-10.47,24.77c0,0-1.21,18.13.2,17.53s2.42-11.89,4.84-20.15,9.66-19.94,9.66-19.94A10.14,10.14,0,0,0,591.59,254.85Z" style="fill:#263238;stroke:#263238;stroke-linejoin:round"></path><path d="M617.58,261.09s-2.42,18.53.2,29.21,4.83,15.51,6,16.72,1.81-3,1.81-3-5.43-14.9-4.83-25.17a69.14,69.14,0,0,1,2.62-16.32A48.88,48.88,0,0,1,617.58,261.09Z" style="fill:#263238;stroke:#263238;stroke-linejoin:round"></path><path d="M601.11,246.75l-.05,10.51s-3.22,7.26-1.41,11.08A6.7,6.7,0,0,0,609.92,271a14.09,14.09,0,0,0,4.84-7.65l1.81-7.86s-6.45,4.84-8.66,3.63-4.43-9.07-5-11.48S601.35,245.49,601.11,246.75Z" style="fill:#fff;stroke:#263238;stroke-linejoin:round"></path><path d="M602.46,241.16s-2.32-8.29.38-12.73,9.06-2.12,9.06-2.12,6.56-4.24,9.64-1.93.39,2.7.39,2.7,8.86,1.93,9.06,5.21-3.67,1.73-3.67,1.73,4,4.63,2.7,7.14-6.75.57-6.75.57-.57-4.62-4.43-6.36-7.71-2.12-7.71-.58-3.28,8.87-5,10S602.65,243.28,602.46,241.16Z" style="fill:#263238;stroke:#263238;stroke-linejoin:round"></path><path d="M603.23,241.35s-1.55-4.24-4.05-3.28-1,7.91,0,8.68a1.57,1.57,0,0,0,1.93,0s.19,6.55,1,9.06,3.66,7.71,7.13,7.71,8.87-6.36,10.8-9.06a75.18,75.18,0,0,0,6.36-13.5c.38-1.73-7.71-8.67-12.15-9.83s-4.62-.58-5.2,1.74-2.31,7.13-3.28,7.71a3,3,0,0,0-1.15,1.93S603,242.89,603.23,241.35Z" style="fill:#fff;stroke:#263238;stroke-linejoin:round"></path><path d="M615.73,244.94c-1.11,1.54-3.69,1.58-5.76.09s-2.83-3.95-1.71-5.49,3.69-1.59,5.75-.1S616.85,243.39,615.73,244.94Z" style="fill:#263238;stroke:#263238;stroke-linejoin:round"></path><path d="M625.62,249c-.71,1.59-3,2.11-5.13,1.17s-3.28-3-2.57-4.59,3-2.11,5.13-1.17S626.32,247.36,625.62,249Z" style="fill:#263238;stroke:#263238;stroke-linejoin:round"></path><line x1="616.16" y1="242.41" x2="619.26" y2="244.16" style="fill:none;stroke:#263238;stroke-linejoin:round"></line><line x1="616.27" y1="243.96" x2="618.33" y2="245.19" style="fill:none;stroke:#263238;stroke-linejoin:round"></line><path d="M609.26,238.59l-8.15-.1,1.14,1,5.56,1.14A4,4,0,0,1,609.26,238.59Z" style="fill:#263238;stroke:#263238;stroke-linejoin:round"></path><path d="M617.4,245.4s-.62,4.12-.62,5.15-1.34,1.45-2.47,1.24-2.58-2.58-2.58-2.58" style="fill:none;stroke:#263238;stroke-linejoin:round"></path><path d="M607.61,248.8s2.16,5.47,6.8,5.26" style="fill:none;stroke:#263238;stroke-linejoin:round"></path><path d="M608.53,250.86s0,5.16,2.07,5.36a2.48,2.48,0,0,0,2.57-2S609.26,252.41,608.53,250.86Z" style="fill:#fff;stroke:#263238;stroke-linejoin:round"></path><path d="M612.35,237.05s2.06-.93,4.23,2.16" style="fill:none;stroke:#263238;stroke-linejoin:round"></path><path d="M620.29,242.41a3.85,3.85,0,0,1,4.12,1.85" style="fill:none;stroke:#263238;stroke-linejoin:round"></path></g><g id="freepik--Line--inject-34"><line x1="36.05" y1="425.57" x2="696.51" y2="425.57" style="fill:none;stroke:#263238;stroke-linejoin:round"></line></g></svg>